<svg width="501" height="504" viewBox="0 0 501 504" fill="none" xmlns="http://www.w3.org/2000/svg">
<g clip-path="url(#clip0_1140_5767)">
<g clip-path="url(#clip1_1140_5767)">
<path d="M402.119 424.342C409.086 409.115 380.256 380.973 337.725 361.485C295.193 341.997 255.067 338.543 248.1 353.77C241.132 368.998 269.963 397.14 312.494 416.627C355.025 436.115 395.152 439.569 402.119 424.342Z" fill="#A60000"/>
<path d="M272.11 381.793L336.815 419.202C339.547 420.817 343.025 420.817 345.757 419.202L377.426 400.932C382.022 398.198 383.139 392.357 380.531 388.38C379.786 387.261 378.793 386.267 377.426 385.521L312.845 348.237C310.113 346.621 306.636 346.621 303.903 348.237L272.11 366.506C270.744 367.252 269.75 368.246 269.005 369.365C266.397 373.218 267.39 379.059 272.11 381.793Z" fill="#3A4059"/>
<path d="M269.005 369.241C269.75 370.359 270.744 371.353 272.11 372.099L336.815 409.508C339.547 411.123 343.025 411.123 345.757 409.508L377.427 391.238C378.668 390.493 379.786 389.498 380.531 388.38C379.786 387.261 378.793 386.267 377.427 385.521L312.845 348.237C310.113 346.621 306.636 346.621 303.903 348.237L272.11 366.506C270.744 367.004 269.75 367.998 269.005 369.241Z" fill="#51557C"/>
<path d="M312.1 310.331V367.749L328.37 377.195L328.494 391.86L332.095 393.973L344.888 386.889V329.719L312.1 310.331Z" fill="#252B3D"/>
<path d="M299.308 317.415V374.833L328.494 391.86L332.096 393.973V336.306L312.1 324.748L299.308 317.415Z" fill="#3A4059"/>
<path d="M204.051 14.9139V237.999C204.051 241.852 206.163 245.456 209.516 247.32L484.73 406.401C491.934 410.626 501 405.407 501 397.08V174.367C501 171.882 500.131 169.52 498.64 167.656C497.895 166.662 497.026 165.916 495.908 165.17C495.784 165.046 495.66 165.046 495.535 164.922L480.508 156.222L220.321 5.46845C213.117 1.36716 204.051 6.58698 204.051 14.9139Z" fill="#252B3D"/>
<path d="M495.411 406.401L476.285 415.846L480.632 403.915C480.632 404.04 489.326 406.774 495.411 406.401Z" fill="#252B3D"/>
<path d="M183.559 15.6594V27.0934L203.803 38.6515L459.767 184.434L479.763 175.858L498.392 167.656C497.647 166.662 496.777 165.916 495.66 165.17L480.26 156.222L214.111 1.86419C209.888 -0.621443 204.672 -0.621443 200.45 1.73991L188.03 8.69968L186.664 9.44537C184.925 10.8125 183.559 13.0495 183.559 15.6594Z" fill="#3A4059"/>
<path d="M183.808 15.6595V246.326C183.808 249.06 185.298 251.546 187.533 252.913L469.33 415.722C474.422 418.58 480.632 414.976 480.632 409.135V178.841C480.632 176.107 479.142 173.621 476.906 172.254L476.534 172.006L195.109 9.07257C192.874 7.82975 190.39 7.82975 188.279 8.69972C187.782 8.94828 187.409 9.19685 186.912 9.44541C185.05 10.8125 183.808 13.0496 183.808 15.6595Z" fill="#51557C"/>
<path d="M194.488 26.8448V244.338C194.488 245.332 194.985 246.202 195.854 246.699L461.506 400.187C461.879 400.435 462.375 400.56 462.872 400.56C464.238 400.56 465.605 399.565 465.605 397.825V180.705C465.605 179.711 465.108 178.841 464.238 178.344L198.587 24.4834C198.214 24.2349 197.717 24.1106 197.221 24.1106C195.979 24.1106 194.488 25.2291 194.488 26.8448Z" fill="white"/>
<path opacity="0.1" d="M194.488 26.8448V37.1602L465.605 194.128V180.705C465.605 179.711 465.108 178.841 464.238 178.344L198.587 24.4834C198.214 24.2349 197.717 24.1106 197.221 24.1106C195.979 24.1106 194.488 25.2291 194.488 26.8448Z" fill="#252B3D"/>
<path d="M455.296 181.824C455.421 183.688 456.538 185.055 457.904 185.055C459.271 185.055 460.264 183.564 460.14 181.824C460.016 179.96 458.898 178.593 457.532 178.593C456.166 178.468 455.172 179.96 455.296 181.824Z" fill="#FF7A8C"/>
<path d="M447.596 177.971C447.721 179.835 448.838 181.203 450.205 181.203C451.571 181.203 452.564 179.711 452.44 177.971C452.316 176.107 451.198 174.74 449.832 174.74C448.59 174.616 447.596 176.107 447.596 177.971Z" fill="#3A4059"/>
<path d="M440.89 174.119C441.014 175.983 442.132 177.35 443.498 177.35C444.864 177.35 445.858 175.858 445.733 174.119C445.609 172.254 444.491 170.887 443.125 170.887C441.759 170.887 440.766 172.379 440.89 174.119Z" fill="#D5243A"/>
<path d="M194.488 218.736V244.338C194.488 245.332 194.985 246.202 195.854 246.699L461.506 400.187C461.879 400.435 462.375 400.56 462.872 400.56C464.238 400.56 465.605 399.565 465.605 397.825V375.33L194.488 218.736Z" fill="#51557C"/>
<path d="M307.257 305.36C307.505 310.828 310.983 315.178 314.957 315.178C318.931 315.178 321.912 310.828 321.663 305.36C321.415 299.891 317.937 295.542 313.963 295.542C309.989 295.542 307.008 300.016 307.257 305.36Z" fill="#6B749B"/>
<path opacity="0.1" d="M413.195 197.608C413.195 197.11 413.07 196.738 412.946 196.365C412.698 195.868 412.325 195.37 411.828 195.122L271.986 114.09C271.24 113.593 270.371 113.593 269.626 113.842C269.502 113.842 269.502 113.842 269.502 113.966L254.598 119.31C254.35 119.31 253.977 119.434 253.729 119.559C252.86 120.056 252.239 120.926 252.239 122.169V123.66L251.99 213.64V217.244L251.866 238.123C251.866 239.118 252.363 240.112 253.356 240.733L393.572 321.765C394.441 322.262 395.435 322.262 396.18 321.889L411.207 316.545L411.58 316.421C412.574 315.924 413.319 314.929 413.319 313.687L413.195 197.608Z" fill="#252B3D"/>
<path d="M253.481 106.758L253.108 212.521C253.108 213.516 253.605 214.51 254.598 215.131L376.93 285.848L383.76 289.825L382.022 301.88L397.049 296.536L397.422 296.411C398.415 295.914 399.161 294.92 399.161 293.677L399.036 177.598C399.036 177.101 398.912 176.728 398.788 176.355C398.54 175.858 398.167 175.361 397.67 175.113L257.952 93.9568C257.206 93.4596 256.337 93.4596 255.592 93.7082C255.468 93.7082 255.468 93.7082 255.468 93.8325L239.571 99.4251L253.481 106.758Z" fill="#D5243A"/>
<path d="M383.885 289.825L382.146 301.88L397.173 296.536L397.546 296.412C398.54 295.914 399.285 294.92 399.285 293.677L399.161 177.598C399.161 177.101 399.036 176.728 398.912 176.355L378.917 183.191L377.054 285.972L383.885 289.825Z" fill="#B11118"/>
<path d="M237.708 218.114C237.708 219.108 238.205 220.103 239.198 220.724L379.414 301.756C381.401 302.874 383.885 301.507 383.885 299.146V290.819V284.108L383.76 183.439V182.942C383.76 181.948 383.139 180.954 382.27 180.457L382.022 180.332L242.427 99.5494C241.434 99.0522 240.44 99.0522 239.571 99.5494C238.701 100.046 237.956 100.916 237.956 102.159V103.651L237.708 193.631V197.235V218.114Z" fill="#FF4A67"/>
<path d="M328.246 199.845L383.885 290.819V284.108L331.226 197.98C330.73 197.111 329.612 196.862 328.867 197.359C327.997 197.98 327.749 199.099 328.246 199.845Z" fill="#D5243A"/>
<path d="M237.832 197.235L286.889 181.327C287.758 181.078 288.255 180.084 288.007 179.09C287.758 178.22 286.765 177.723 285.771 177.971L237.832 193.506V197.235Z" fill="#D5243A"/>
<path d="M238.08 103.526L302.91 209.414L383.76 183.439V182.942C383.76 181.948 383.139 180.954 382.27 180.457L382.022 180.332L304.4 205.313L239.695 99.425C238.826 99.9222 238.08 100.792 238.08 102.035V103.526Z" fill="#D5243A"/>
<path d="M75.2793 344.086C93.711 338.445 106.587 327.114 104.039 318.777C101.491 310.441 84.484 308.257 66.0523 313.898C47.6206 319.54 34.7443 330.871 37.2922 339.207C39.8402 347.544 56.8476 349.728 75.2793 344.086Z" fill="#A60000"/>
<path d="M94.8844 116.701C94.8844 116.825 94.8844 116.949 94.8844 117.073C94.8844 117.198 94.8844 117.446 95.0086 117.571C96.9957 127.389 111.402 143.794 111.402 143.794L118.73 139.444C111.775 130.123 104.075 110.611 104.075 110.611L99.2312 113.842L94.8844 116.701Z" fill="white"/>
<path d="M89.1715 105.018C90.0409 109.492 92.2764 113.469 94.5119 116.576C94.636 116.701 94.7602 116.949 94.8844 117.073C95.0086 117.198 95.1328 117.322 95.1328 117.446C95.7538 118.316 96.3748 119.062 96.9957 119.683C97.9893 118.441 99.107 117.198 100.101 115.955C100.97 114.961 101.591 113.842 102.336 112.724C102.833 111.978 103.33 111.232 103.951 110.611C99.2312 100.295 92.5247 78.0491 92.5247 78.0491C92.5247 78.0491 87.1844 94.9514 89.1715 105.018Z" fill="white"/>
<path d="M94.6361 116.576C94.7603 116.701 94.8845 116.949 95.0087 117.074C95.0087 117.198 95.0087 117.446 95.1329 117.571L95.2571 117.446C96.1264 116.576 97.6168 115.582 99.2313 114.961C99.4797 114.837 99.6039 114.712 99.6039 114.464C99.6039 114.339 99.6039 114.339 99.6039 114.215C99.4797 114.091 99.3555 113.967 99.2313 113.842C99.1071 113.842 98.9829 113.842 98.9829 113.842C97.12 114.588 95.6297 115.582 94.6361 116.576Z" fill="#B11118"/>
<path d="M45.9518 316.794C44.834 317.167 43.9647 318.285 43.7163 319.528C43.5921 320.647 43.4679 322.138 43.4679 324.251C43.5921 328.849 43.7163 330.713 43.7163 330.713C43.7163 330.713 45.0824 333.199 49.0566 333.821L50.1744 333.945C50.1744 333.945 59.2406 339.413 63.4632 339.786C68.9277 340.283 74.6407 337.798 70.0455 332.453C65.6987 327.358 59.3648 325.369 57.5019 321.268C57.2535 320.771 55.8873 319.777 55.5147 319.404C52.6583 316.297 50.2986 315.427 45.9518 316.794Z" fill="#FF4A67"/>
<path d="M55.1422 326.612C55.3906 326.612 55.5148 326.488 55.639 326.239C55.639 326.239 56.3841 324.624 57.6261 324.251C58.868 323.878 60.2341 324.872 60.2341 324.872C60.4825 324.997 60.7309 324.997 60.9793 324.748C61.1035 324.499 61.1035 324.251 60.8551 324.002C60.7309 324.002 59.1164 322.511 57.2535 323.132C55.5148 323.754 54.6454 325.618 54.6454 325.742C54.5212 325.991 54.6454 326.364 54.8938 326.364C55.018 326.488 55.1422 326.612 55.1422 326.612Z" fill="white"/>
<path d="M57.0051 327.855C57.2535 327.855 57.3777 327.731 57.5019 327.482C57.5019 327.482 58.247 325.866 59.489 325.494C60.7309 325.121 62.0971 326.115 62.0971 326.115C62.3455 326.239 62.5938 326.239 62.8422 325.991C62.9664 325.742 62.9664 325.494 62.718 325.245C62.5938 325.245 60.9793 323.754 59.1164 324.375C57.3777 324.997 56.5083 326.861 56.5083 326.985C56.3841 327.234 56.5083 327.606 56.7567 327.606C56.8809 327.855 56.8809 327.855 57.0051 327.855Z" fill="white"/>
<path d="M58.9922 328.974C59.2405 328.974 59.3647 328.849 59.4889 328.601C59.4889 328.601 60.2341 326.985 61.476 326.612C62.718 326.239 64.0841 327.234 64.0841 327.234C64.3325 327.358 64.5809 327.358 64.8293 327.109C64.9535 326.861 64.9535 326.612 64.7051 326.364C64.5809 326.364 62.9664 324.872 61.1035 325.494C59.3647 326.115 58.4954 327.979 58.4954 328.104C58.3712 328.352 58.4954 328.725 58.7438 328.725C58.868 328.974 58.9922 328.974 58.9922 328.974Z" fill="white"/>
<path d="M46.5727 307.846L46.0759 319.28C46.0759 319.28 48.9324 322.262 53.4034 320.274L54.5211 307.97C54.5211 307.97 49.6776 306.23 46.5727 307.846Z" fill="#FCB38F"/>
<path d="M43.9647 244.959C47.5663 226.193 44.7099 196.489 44.4615 182.818L74.6407 187.417L75.5101 206.059C75.5101 205.935 73.2746 206.183 73.2746 206.183C73.2746 206.183 72.0326 205.562 70.4181 205.686C68.3068 205.81 67.5616 209.29 67.3132 210.409C66.1955 223.831 66.1955 240.361 64.9536 250.676C62.5939 271.058 54.8938 316.173 54.8938 316.173C51.168 316.918 49.0567 316.794 45.3308 315.427C45.455 315.427 41.605 256.766 43.9647 244.959Z" fill="#51557C"/>
<path d="M47.3179 314.806C47.6905 314.806 47.9389 314.557 47.9389 314.184C47.9389 312.071 47.3179 263.104 46.8211 259.376C46.4486 255.647 47.6905 242.101 48.8083 234.768C49.6776 229.548 49.0566 205.065 49.0566 204.071C49.0566 203.698 48.8083 203.449 48.4357 203.449C48.0631 203.449 47.8147 203.698 47.8147 204.071C47.8147 204.319 48.4357 229.424 47.5663 234.644C46.3244 242.101 45.0824 255.772 45.5792 259.625C45.9518 263.229 46.5728 313.811 46.6969 314.308C46.6969 314.557 46.9453 314.806 47.3179 314.806Z" fill="#252B3D"/>
<path d="M55.8874 312.444C55.8874 312.444 49.4293 313.19 44.5857 311.823C44.2131 313.687 44.4615 315.8 44.8341 316.794C44.8341 316.794 50.6712 318.285 55.2664 317.167C55.8874 315.8 56.2599 314.184 55.8874 312.444Z" fill="#6B749B"/>
<path d="M72.281 308.591C71.1633 308.964 70.2939 310.083 70.0455 311.326C69.9213 312.444 69.7971 313.936 69.7971 316.048C69.9213 320.647 70.0455 322.511 70.0455 322.511C70.0455 322.511 71.4116 324.997 75.3859 325.618L76.5036 325.742C76.5036 325.742 85.5698 331.211 89.7924 331.584C95.257 332.081 100.97 329.595 96.3747 324.251C92.0279 319.155 85.694 317.167 83.8311 313.066C83.5827 312.568 82.2166 311.574 81.844 311.201C78.8633 308.094 76.5036 307.224 72.281 308.591Z" fill="#FF4A67"/>
<path d="M81.4714 318.41C81.7198 318.41 81.844 318.285 81.9682 318.037C81.9682 318.037 82.7133 316.421 83.9553 316.048C85.1972 315.675 86.5634 316.67 86.5634 316.67C86.8118 316.794 87.0602 316.794 87.3085 316.545C87.4327 316.297 87.4327 316.048 87.1843 315.8C87.0601 315.8 85.4456 314.308 83.5827 314.93C81.844 315.551 80.9746 317.415 80.9746 317.54C80.8504 317.788 80.9746 318.161 81.223 318.161C81.3472 318.41 81.4714 318.41 81.4714 318.41Z" fill="white"/>
<path d="M83.3343 319.652C83.5827 319.652 83.7069 319.528 83.8311 319.28C83.8311 319.28 84.5763 317.664 85.8182 317.291C87.0601 316.918 88.4263 317.913 88.4263 317.913C88.6747 318.037 88.9231 318.037 89.1715 317.788C89.2957 317.54 89.2956 317.291 89.0473 317.043C88.9231 317.043 87.3085 315.551 85.4456 316.173C83.7069 316.794 82.8375 318.658 82.8375 318.783C82.7133 319.031 82.8375 319.404 83.0859 319.404C83.2101 319.652 83.2101 319.652 83.3343 319.652Z" fill="white"/>
<path d="M85.3214 320.771C85.5698 320.771 85.694 320.647 85.8182 320.398C85.8182 320.398 86.5633 318.783 87.8053 318.41C89.0472 318.037 90.4133 319.031 90.4133 319.031C90.6617 319.155 90.9101 319.155 91.1585 318.907C91.2827 318.658 91.2827 318.41 91.0343 318.161C90.9101 318.161 89.2956 316.67 87.4327 317.291C85.694 317.913 84.8246 319.777 84.8246 319.901C84.7004 320.15 84.8246 320.522 85.073 320.522C85.1972 320.771 85.3214 320.771 85.3214 320.771Z" fill="white"/>
<path d="M72.9019 299.643L72.4052 311.077C72.4052 311.077 75.2616 314.06 79.7326 312.071L80.8504 299.767C80.8504 299.767 76.0068 298.027 72.9019 299.643Z" fill="#FCB38F"/>
<path d="M93.6425 203.325C92.6489 216.747 90.4134 231.91 89.1715 242.101C86.8118 262.483 81.223 307.846 81.223 307.846C77.4972 308.591 75.3859 308.467 71.6601 307.1C71.6601 307.1 67.6858 248.315 68.9278 236.26C71.0391 216.623 71.1633 196.862 70.7907 183.191L94.8844 179.711L93.6425 203.325Z" fill="#51557C"/>
<path d="M74.8891 202.952C74.5165 202.952 74.2681 203.201 74.2681 203.574C74.3923 211.528 74.3923 223.086 73.8955 226.317C72.6536 233.774 71.4116 247.445 71.9084 251.298C72.281 254.902 72.902 305.484 73.0262 305.982C73.0262 306.354 73.2746 306.603 73.6471 306.603C74.0197 306.603 74.2681 306.354 74.2681 305.982C74.2681 303.869 73.6471 254.902 73.1504 251.173C72.7778 247.445 74.0197 233.898 75.1375 226.566C75.6343 223.21 75.6343 211.528 75.5101 203.574C75.5101 203.201 75.2617 202.952 74.8891 202.952Z" fill="#252B3D"/>
<path d="M82.2166 304.242C82.2166 304.242 75.7585 304.987 70.9149 303.62C70.5423 305.484 70.7907 307.597 71.1633 308.592C71.1633 308.592 77.0004 310.083 81.5956 308.964C82.2166 307.597 82.5892 305.982 82.2166 304.242Z" fill="#6B749B"/>
<path d="M92.6489 78.049C85.1973 76.5577 72.6536 75.5634 65.9471 77.9248C56.5084 81.1561 52.0374 84.3874 45.5793 88.9858C45.3309 92.7143 44.2131 110.487 44.2131 114.464C44.2131 115.458 44.2131 116.328 44.2131 117.322C44.2131 117.695 44.2131 118.068 44.2131 118.441C44.3373 130.496 42.847 157.216 42.5986 163.679C42.1018 175.362 41.7292 181.327 41.9776 182.073C43.5921 186.298 54.1487 190.151 69.7972 189.281C85.4456 188.411 93.1457 188.038 94.7602 182.321C96.4989 176.604 95.6296 172.13 93.7667 155.104C92.2763 140.563 92.2763 90.6015 92.6489 78.049Z" fill="#FF4A67"/>
<path d="M85.5698 153.612C85.8182 153.737 86.1908 153.488 86.315 153.239C86.4392 152.991 86.315 152.618 85.9424 152.494C85.694 152.369 59.489 141.184 57.9987 127.513C57.9987 127.14 57.6261 126.892 57.3777 127.016C57.0051 127.016 56.7567 127.389 56.8809 127.637C57.5019 133.727 62.5939 139.941 71.9085 146.155C78.615 150.754 85.4456 153.612 85.5698 153.612Z" fill="white"/>
<path d="M81.7198 155.974C82.0924 156.098 82.3407 155.849 82.4649 155.601C82.5891 155.228 82.3407 154.979 82.0924 154.855C81.9682 154.855 73.5229 152.245 66.0713 146.901C65.8229 146.653 65.4503 146.777 65.2019 147.025C64.9535 147.274 65.0777 147.647 65.3261 147.895C73.0262 153.364 81.5956 155.974 81.7198 155.974Z" fill="white"/>
<path d="M86.5634 46.8543C86.5634 46.8543 90.0409 39.1488 82.8376 34.6747C75.6343 30.2005 68.431 33.1833 68.6794 35.9175C68.9278 38.6517 67.0649 36.7875 61.6003 40.3916C56.1358 43.9958 55.1422 49.5885 57.2535 53.8141C57.2535 53.8141 68.8036 40.2674 86.5634 46.8543Z" fill="#252B3D"/>
<path d="M75.2618 74.3204L74.6408 79.6645L74.5166 81.5287C68.5553 83.0201 63.8359 78.9188 63.8359 78.9188L63.3391 70.592C63.4633 70.4677 63.5875 70.4677 63.7117 70.3434C66.9407 68.9763 75.2618 74.3204 75.2618 74.3204Z" fill="#FCB38F"/>
<path d="M75.2618 74.3204L74.6408 79.6645C68.5553 77.5517 65.0779 72.9533 63.5875 70.3434C66.9408 68.9763 75.2618 74.3204 75.2618 74.3204Z" fill="#FD8471"/>
<path d="M84.8247 56.6725C84.8247 56.6725 87.557 53.4412 89.1715 56.2996C90.9102 59.1581 87.8053 67.1121 83.3344 64.8751L84.8247 56.6725Z" fill="#FD8471"/>
<path d="M84.5763 62.5136C84.7005 62.5136 84.9489 62.3893 84.9489 62.265C85.8183 59.7794 88.4263 58.9094 88.4263 58.9094C88.6747 58.7852 88.7989 58.6609 88.6747 58.4123C88.5505 58.1637 88.4263 58.0395 88.178 58.1637C88.0538 58.1637 85.0731 59.158 84.2037 62.0165C84.2037 62.1408 84.3279 62.3893 84.5763 62.5136Z" fill="#D6615D"/>
<path d="M87.3086 61.3952C87.4328 61.3952 87.4328 61.3952 87.557 61.3952C87.6812 61.2709 87.8054 61.0223 87.6812 60.8981C87.6812 60.8981 87.1844 60.1524 86.3151 59.6552C86.0667 59.531 85.9425 59.6552 85.8183 59.7795C85.6941 60.0281 85.8183 60.1524 85.9425 60.2766C86.6876 60.6495 87.0602 61.1466 87.0602 61.2709C87.0602 61.2709 87.1844 61.2709 87.3086 61.3952Z" fill="#D6615D"/>
<path d="M86.6876 60.7739C86.6876 61.5196 86.5634 62.2653 86.4392 63.0109C85.4456 69.1007 80.1053 81.5289 69.3004 75.1905C66.6923 73.6992 64.8294 72.2078 63.3391 70.5921C62.2213 69.3493 61.3519 68.1065 60.6068 66.6151C60.3584 66.118 60.2342 65.3723 59.9858 64.8752C59.9858 64.7509 59.8616 64.6266 59.8616 64.5023V64.378C59.3648 62.6381 58.8681 60.8982 58.6197 59.1582C58.2471 57.0454 57.9987 55.0569 57.7503 53.4413C57.5019 50.4585 58.7439 47.6 61.2278 45.8601C67.6859 41.1374 75.2617 41.6345 80.3537 43.0016C83.8311 43.8716 86.4392 46.9786 86.6876 50.5828C86.8118 52.3227 86.936 54.3112 86.936 56.1755C86.8118 57.7911 86.8118 59.4068 86.6876 60.7739Z" fill="#FCB38F"/>
<path d="M64.2084 64.3779C64.2084 64.3779 63.0907 66.4907 60.6068 66.615C60.3584 65.9936 60.2342 65.3722 59.9858 64.8751C61.1036 65.1236 62.9665 65.2479 64.2084 64.3779Z" fill="#FD8471"/>
<path d="M63.339 70.592C62.2213 69.3492 61.3519 68.1064 60.6067 66.615C60.3583 66.1179 60.2342 65.3722 59.9858 64.875C59.9858 64.7508 59.8616 64.6265 59.8616 64.5022C60.11 64.5022 60.6067 64.6265 61.2277 64.875C61.2277 64.875 64.0842 68.1064 63.339 70.592Z" fill="#252B3D"/>
<path d="M80.2294 68.2306C79.7327 69.722 78.2423 72.5805 74.7649 72.0834C71.1633 71.5862 70.5423 68.852 70.4181 66.8635L80.2294 68.2306Z" fill="white"/>
<path d="M72.4052 59.0339C72.4052 59.9038 71.9084 60.5253 71.2875 60.5253C70.7907 60.5253 70.2939 59.7796 70.4181 58.9096C70.4181 58.0396 70.9149 57.4182 71.5359 57.4182C72.0326 57.4182 72.4052 58.1639 72.4052 59.0339Z" fill="#252B3D"/>
<path d="M83.2101 59.4067C83.2101 60.2766 82.7134 60.8981 82.0924 60.8981C81.5956 60.8981 81.0988 60.1524 81.223 59.2824C81.223 58.4124 81.7198 57.791 82.3408 57.791C82.8376 57.791 83.2101 58.5367 83.2101 59.4067Z" fill="#252B3D"/>
<path d="M66.1955 54.4354C66.1955 54.4354 69.7971 52.4469 72.7778 53.3169L72.6536 54.9325C72.6536 54.9325 68.3068 55.1811 66.3197 56.2996C66.1955 55.8025 66.0713 55.1811 66.1955 54.4354Z" fill="#252B3D"/>
<path d="M86.1908 55.3056C86.1908 55.3056 82.8376 52.9442 79.7327 53.5656L79.6085 55.1813C79.6085 55.1813 83.8311 55.8027 85.8182 57.1698C86.0666 56.5484 86.315 55.927 86.1908 55.3056Z" fill="#252B3D"/>
<path d="M76.8762 65.745C76.2553 65.745 75.6343 65.4964 75.5101 65.3721C75.2617 65.2479 75.2617 64.9993 75.2617 64.875C75.3859 64.6264 75.6343 64.6264 75.7585 64.6264C76.1311 64.7507 76.8762 64.9993 77.2488 64.875C77.373 64.875 77.373 64.7507 77.4972 64.5022C77.7456 63.1351 77.4972 58.6609 77.4972 58.6609C77.4972 58.4124 77.6214 58.2881 77.8698 58.2881C78.1182 58.2881 78.2424 58.4124 78.2424 58.6609C78.2424 58.9095 78.4908 63.2593 78.2424 64.7507C78.1182 65.2479 77.8698 65.4964 77.6214 65.6207C77.4972 65.6207 77.1246 65.745 76.8762 65.745Z" fill="#FD8471"/>
<path d="M60.6068 56.5483C60.6068 56.5483 57.7503 53.5656 56.26 56.5483C54.7696 59.5311 57.7503 66.988 62.9665 64.8752L60.6068 56.5483Z" fill="#FCB38F"/>
<path d="M61.3519 62.3896C61.2278 62.3896 60.9794 62.2653 60.9794 62.141C59.9858 59.7796 57.2535 59.0339 57.2535 59.0339C57.0051 59.0339 56.8809 58.7854 57.0051 58.5368C57.0051 58.2883 57.2535 58.164 57.5019 58.2883C57.6261 58.2883 60.6068 59.0339 61.8487 61.7681C61.7245 62.0167 61.6003 62.2653 61.3519 62.3896Z" fill="#FD8471"/>
<path d="M58.6197 61.3952C58.4955 61.3952 58.4955 61.3952 58.3713 61.3952C58.1229 61.2709 58.1229 61.0223 58.2471 60.8981C58.2471 60.8981 58.6197 60.1524 59.489 59.531C59.6132 59.4067 59.8616 59.531 59.9858 59.6553C60.11 59.7795 59.9858 60.0281 59.8616 60.1524C59.1165 60.5252 58.8681 61.1466 58.8681 61.1466C58.8681 61.3952 58.7439 61.3952 58.6197 61.3952Z" fill="#FD8471"/>
<path d="M57.8745 55.3054C57.8745 55.3054 60.11 54.9326 61.2277 56.5482C62.5939 58.5367 62.7181 60.0281 62.7181 60.0281H64.4568C64.4568 60.0281 63.0906 56.7968 63.4632 54.8083C63.8358 52.8198 65.3261 52.4469 64.9536 50.3341C64.581 48.2214 65.5745 45.6114 67.6858 45.3629C69.7971 44.99 79.1117 44.3686 82.3408 45.86C85.5698 47.3514 84.9488 50.707 85.8182 52.0741C86.6876 53.3169 86.6876 56.2997 86.6876 56.2997C87.1843 55.554 87.4327 54.684 87.5569 53.814C87.5569 52.6955 87.5569 51.0798 87.3085 48.967C86.8118 44.99 81.0988 40.2673 72.4052 40.2673C63.7116 40.2673 58.4954 44.3686 57.3777 48.5942C56.2599 52.9441 57.8745 55.3054 57.8745 55.3054Z" fill="#252B3D"/>
<path d="M74.7649 59.2825C74.6407 61.5196 72.7778 63.1353 70.5423 63.011C68.3068 62.8867 66.6923 61.0225 66.8165 58.7854C66.9407 56.5483 68.8036 54.9327 71.0391 55.057C73.1504 55.1812 74.8891 57.1698 74.7649 59.2825ZM61.8487 57.5426C61.9729 57.5426 62.0971 57.5426 62.0971 57.5426C62.7181 57.5426 63.2148 57.6669 63.7116 57.6669C64.0842 57.6669 64.4568 57.7912 64.7052 57.7912C64.7052 57.7912 65.6987 58.0397 66.0713 58.164C66.0713 58.4126 65.9471 58.5369 65.9471 58.7854C65.8229 61.3953 67.81 63.6324 70.4181 63.7567C73.0262 63.881 75.2617 61.8925 75.3859 59.2825C75.5101 56.6726 73.523 54.4356 70.9149 54.3113C68.8036 54.187 66.9407 55.4298 66.3197 57.294C65.6987 57.1698 64.3326 56.9212 63.4632 56.7969C63.2148 56.7969 62.9665 56.6726 62.8423 56.6726C62.4697 56.6726 61.8487 56.5483 61.3519 56.5483C61.3519 56.5483 61.3519 56.5483 61.3519 56.6726L61.8487 57.5426Z" fill="white"/>
<path d="M83.4586 64.6267C80.8505 64.5024 78.8634 62.2654 78.9876 59.6554C79.1118 57.0455 81.3473 55.057 83.9553 55.1813C86.5634 55.3056 88.5505 57.5427 88.4263 60.1526C88.3021 62.7625 86.0666 64.751 83.4586 64.6267ZM83.9553 55.8027C81.7198 55.6784 79.8569 57.4184 79.7327 59.5312C79.6085 61.7682 81.3473 63.6324 83.4586 63.7567C85.6941 63.881 87.557 62.1411 87.6812 60.0283C87.8054 57.7912 86.1908 55.927 83.9553 55.8027Z" fill="white"/>
<path d="M79.2359 58.5369C79.2359 58.5369 78.3666 57.2941 77.2488 57.1698C76.1311 57.0455 75.2617 58.2883 75.2617 58.2883L74.6407 57.7912C74.6407 57.7912 75.7585 56.2998 77.2488 56.4241C78.7392 56.5484 79.7327 58.0398 79.8569 58.0398L79.2359 58.5369Z" fill="white"/>
<path d="M121.71 117.943L83.3344 140.065L57.8745 125.4L95.878 103.03L121.71 117.943Z" fill="#6B749B"/>
<mask id="mask0_1140_5767" style="mask-type:luminance" maskUnits="userSpaceOnUse" x="63" y="85" width="53" height="52">
<path d="M64.4568 125.276L83.3343 136.213L115.004 117.943L114.383 91.0986L97.4925 85.1331L63.5874 103.03L64.4568 125.276Z" fill="white"/>
</mask>
<g mask="url(#mask0_1140_5767)">
<path d="M115.004 117.943L96.0022 106.882L64.4568 125.276L83.3343 136.213L115.004 117.943Z" fill="#252B3D"/>
</g>
<mask id="mask1_1140_5767" style="mask-type:luminance" maskUnits="userSpaceOnUse" x="63" y="85" width="53" height="52">
<path d="M64.4568 125.276L83.3343 136.213L115.004 117.943L114.383 91.0986L97.4925 85.1331L63.5874 103.03L64.4568 125.276Z" fill="white"/>
</mask>
<g mask="url(#mask1_1140_5767)">
<path d="M96.6231 107.255V125.897C96.6231 126.022 96.4989 126.27 96.3747 126.394L74.7649 138.823L73.5229 139.568L73.8955 141.681L71.2874 140.687H71.1632C71.039 140.563 70.7906 140.438 70.7906 140.19V119.683C70.7906 119.559 70.7906 119.559 70.7906 119.435C70.7906 119.31 70.9148 119.31 71.039 119.186L95.7537 104.894C95.8779 104.769 96.0021 104.769 96.1263 104.894L98.8586 105.888L96.6231 107.255Z" fill="#E5E5E5"/>
<path d="M73.6471 139.568L74.0197 141.681L71.4116 140.687H71.2874C71.1632 140.562 70.9148 140.438 70.9148 140.19V119.683C70.9148 119.559 70.9148 119.559 70.9148 119.435L74.3922 120.677L74.7648 138.823L73.6471 139.568Z" fill="#C6C6C6"/>
<path d="M99.4795 126.891C99.4795 127.016 99.3553 127.264 99.2311 127.389L74.3923 141.681C74.0197 141.93 73.6471 141.681 73.6471 141.184V139.692V138.574V120.802V120.677C73.6471 120.553 73.7713 120.305 73.8955 120.18L98.486 105.888C98.6102 105.764 98.8585 105.764 98.9827 105.888C99.1069 106.012 99.2311 106.136 99.2311 106.385V106.634V122.542V123.163L99.4795 126.891Z" fill="white"/>
<path d="M83.4584 123.784L73.6471 139.817V138.698L82.9617 123.536C83.0859 123.412 83.2101 123.287 83.3343 123.412C83.5826 123.412 83.5826 123.66 83.4584 123.784Z" fill="#E5E5E5"/>
<path d="M99.4796 123.287L90.786 120.553C90.6618 120.553 90.5376 120.305 90.5376 120.18C90.5376 120.056 90.786 119.932 90.9102 119.932L99.3554 122.666L99.4796 123.287Z" fill="#E5E5E5"/>
<path d="M99.3553 106.758L87.9294 125.4L73.6471 120.802V120.677C73.6471 120.553 73.7713 120.305 73.8955 120.18L87.5569 124.53L98.9827 105.888C99.1069 106.012 99.2311 106.137 99.2311 106.385L99.3553 106.758Z" fill="#E5E5E5"/>
</g>
<mask id="mask2_1140_5767" style="mask-type:luminance" maskUnits="userSpaceOnUse" x="63" y="85" width="53" height="52">
<path d="M64.4568 125.276L83.3343 136.213L115.004 117.943L114.383 91.0986L97.4925 85.1331L63.5874 103.03L64.4568 125.276Z" fill="white"/>
</mask>
<g mask="url(#mask2_1140_5767)">
<path d="M107.925 111.108V129.75C107.925 129.874 107.801 130.123 107.676 130.247L86.0666 142.675L84.8247 143.421L85.1973 145.534L82.5892 144.54H82.465C82.3408 144.415 82.0924 144.291 82.0924 144.043V123.536C82.0924 123.412 82.0924 123.412 82.0924 123.287C82.0924 123.163 82.2166 123.163 82.3408 123.039L107.055 108.747C107.18 108.622 107.304 108.622 107.428 108.747L110.16 109.741L107.925 111.108Z" fill="#E5E5E5"/>
<path d="M84.8247 143.421L85.1973 145.534L82.5892 144.54H82.465C82.3408 144.415 82.0924 144.291 82.0924 144.042V123.536C82.0924 123.412 82.0924 123.412 82.0924 123.287L85.5699 124.53L85.9424 142.675L84.8247 143.421Z" fill="#C6C6C6"/>
<path d="M110.657 130.744C110.657 130.869 110.533 131.117 110.409 131.241L85.694 145.534C85.3214 145.782 84.9489 145.534 84.9489 145.037V143.545V142.427V124.654V124.53C84.9489 124.406 85.073 124.157 85.1972 124.033L109.788 109.741C109.912 109.616 110.16 109.616 110.285 109.741C110.409 109.865 110.533 109.989 110.533 110.238V110.486V126.394V127.016L110.657 130.744Z" fill="white"/>
<path d="M94.7602 127.637L84.9489 143.67V142.551L94.2634 127.389C94.3876 127.264 94.5118 127.14 94.636 127.264C94.7602 127.264 94.7602 127.389 94.7602 127.637Z" fill="#E5E5E5"/>
<path d="M110.657 127.14L101.963 124.406C101.839 124.406 101.715 124.158 101.715 124.033C101.715 123.909 101.963 123.785 102.088 123.785L110.533 126.519L110.657 127.14Z" fill="#E5E5E5"/>
<path d="M110.657 110.611L99.2312 129.253L84.9489 124.655V124.53C84.9489 124.406 85.073 124.157 85.1972 124.033L98.8586 128.383L110.285 109.741C110.409 109.865 110.533 109.989 110.533 110.238L110.657 110.611Z" fill="#E5E5E5"/>
</g>
<path d="M121.71 117.943V162.188L83.3344 184.31V140.065L121.71 117.943Z" fill="#3A4059"/>
<path d="M111.402 151.251L111.526 156.719L97.9892 164.3L97.865 159.951L103.826 149.511C104.944 147.522 105.068 146.652 105.068 145.907C105.068 144.912 104.447 144.54 103.33 145.161C102.336 145.782 101.342 147.025 100.846 148.517L96.4989 148.268C97.6167 144.664 100.101 141.308 103.702 139.32C107.676 137.083 110.657 138.077 110.657 142.054C110.657 144.167 110.284 146.28 107.925 150.381L105.565 154.482L111.402 151.251Z" fill="#51557C"/>
<path d="M83.3344 184.31L57.8745 169.272V125.4L83.3344 140.066V184.31Z" fill="#252B3D"/>
<path d="M43.0954 136.834C46.697 136.337 50.6713 134.846 54.2729 134.1C54.1487 133.727 54.1487 133.23 54.0245 132.733C54.0245 132.609 54.0245 132.36 53.9003 132.236C53.9003 131.987 53.7761 131.739 53.7761 131.49C51.6648 117.571 50.4229 85.5059 50.4229 85.5059C50.4229 85.5059 40.7357 89.8557 39.2454 101.662C38.2518 109.492 41.3567 128.134 43.0954 136.834Z" fill="white"/>
<path d="M43.0955 136.834C43.9648 145.783 66.8166 169.645 74.8892 175.113L77.2489 165.295C60.9794 143.67 55.5149 134.721 54.273 132.609C54.0246 132.236 54.0246 132.112 54.0246 132.112L48.9326 134.349L43.0955 136.834Z" fill="white"/>
<path d="M48.6842 134.348C48.8084 134.473 48.8084 134.473 48.9325 134.597C49.1809 134.721 49.4293 134.721 49.5535 134.597C51.0439 133.603 52.6584 133.106 54.0245 132.857C54.1487 132.857 54.1487 132.857 54.2729 132.857C54.0245 132.484 54.0245 132.36 54.0245 132.36C54.0245 132.111 53.9003 131.863 53.9003 131.614C52.41 131.987 50.6713 132.484 48.9325 133.603C48.56 133.727 48.4358 134.1 48.6842 134.348Z" fill="#B11118"/>
<path d="M77.1247 165.419C77.1247 165.419 82.465 166.04 82.9618 168.029V171.509V179.587C82.9618 179.587 79.3602 181.078 74.8892 175.113C74.0198 171.509 75.0134 168.277 77.1247 165.419Z" fill="#FCB38F"/>
<path d="M82.8376 165.668C82.8376 165.668 90.0409 166.662 89.2957 168.526C89.0474 169.147 83.4586 169.147 83.4586 169.147L83.5828 170.017C83.5828 170.017 89.6683 170.515 90.4135 172.13C91.1587 173.746 83.9554 172.876 83.9554 172.876L84.0796 173.994C84.0796 173.994 88.9232 174.367 89.6683 175.734C90.4135 177.101 83.5828 176.729 83.5828 176.729L83.707 177.599C83.707 177.599 86.5635 178.096 87.4328 179.463C88.4264 180.83 83.5828 180.209 81.7199 179.463C79.7328 178.717 80.2296 177.226 80.4779 176.604C80.4779 176.604 79.4844 174.243 80.7263 172.876C80.7263 172.876 79.6086 170.887 80.8505 169.645C80.7263 169.645 79.3602 165.543 82.8376 165.668Z" fill="#FCB38F"/>
<path d="M77.1247 165.419C77.1247 165.419 77.994 164.052 78.4908 162.56C78.9876 161.069 80.2295 159.205 80.7263 160.323C81.3473 161.566 80.8505 162.933 80.7263 164.176C80.4779 167.035 81.4715 166.537 81.2231 167.407C80.9747 168.277 77.0005 167.159 77.1247 165.419Z" fill="#FCB38F"/>
<path d="M122.331 137.953C122.331 137.953 115.128 138.947 115.873 140.936C116.122 141.557 121.71 141.433 121.71 141.433L121.586 142.303C121.586 142.303 115.501 142.924 114.88 144.54C114.135 146.155 121.338 145.161 121.338 145.161L121.214 146.28C121.214 146.28 116.37 146.652 115.625 148.02C114.88 149.387 121.71 148.89 121.71 148.89L121.586 149.76C121.586 149.76 118.854 150.381 117.86 151.624C116.867 152.991 121.71 152.245 123.573 151.499C125.56 150.754 125.064 149.262 124.815 148.641C124.815 148.641 125.685 146.28 124.567 144.913C124.567 144.913 125.685 142.924 124.443 141.681C124.567 141.805 125.809 137.704 122.331 137.953Z" fill="#FCB38F"/>
<path d="M123.822 138.698C123.822 139.568 122.704 140.066 121.586 140.314V132.857C122.083 133.106 122.704 134.473 122.952 135.716C123.325 137.207 123.822 138.698 123.822 138.698Z" fill="#FCB38F"/>
<path d="M433.687 519.124C457.488 519.124 476.782 514.84 476.782 509.555C476.782 504.269 457.488 499.985 433.687 499.985C409.886 499.985 390.591 504.269 390.591 509.555C390.591 514.84 409.886 519.124 433.687 519.124Z" fill="#A60000"/>
<path d="M421.64 292.186C424.62 292.559 429.961 293.553 432.941 293.553C443.125 293.553 445.237 295.169 455.296 293.553C458.153 293.056 461.009 294.423 464.238 291.937C462.748 288.085 459.395 262.98 458.277 259.127C456.414 252.416 454.055 243.84 454.055 243.84C454.055 243.84 423.379 240.733 421.888 246.823C420.398 252.913 421.143 262.98 422.261 269.691C422.385 271.307 422.012 291.192 421.64 292.186Z" fill="#252B3D"/>
<path d="M458.65 493.149C459.892 493.522 460.637 494.641 460.885 495.884C461.009 497.002 461.134 498.494 461.134 500.606C461.009 505.205 460.885 507.193 460.885 507.193C460.885 507.193 459.519 509.679 455.421 510.3L454.179 510.425C454.179 510.425 445.113 515.893 440.766 516.39C435.177 516.887 429.464 514.402 434.183 508.933C438.53 503.838 444.864 501.725 446.851 497.624C447.1 497.126 448.466 496.132 448.838 495.759C451.943 492.652 454.303 491.782 458.65 493.149Z" fill="#FF4A67"/>
<path d="M449.335 502.968C449.087 502.968 448.963 502.843 448.838 502.595C448.838 502.595 448.093 500.979 446.851 500.606C445.609 500.233 444.243 501.228 444.243 501.352C443.995 501.476 443.746 501.476 443.498 501.228C443.374 500.979 443.374 500.731 443.622 500.482C443.746 500.482 445.361 498.991 447.224 499.612C448.963 500.233 449.832 502.098 449.832 502.222C449.956 502.471 449.832 502.843 449.584 502.843C449.459 502.968 449.335 502.968 449.335 502.968Z" fill="white"/>
<path d="M447.472 504.335C447.224 504.335 447.1 504.21 446.976 503.962C446.976 503.962 446.23 502.346 444.988 501.973C443.746 501.601 442.38 502.595 442.38 502.719C442.132 502.843 441.884 502.843 441.635 502.595C441.511 502.346 441.511 502.098 441.759 501.849C441.884 501.849 443.498 500.358 445.361 500.979C447.1 501.601 447.969 503.465 447.969 503.589C448.093 503.838 447.969 504.21 447.721 504.21C447.596 504.335 447.596 504.335 447.472 504.335Z" fill="white"/>
<path d="M445.485 505.453C445.237 505.453 445.113 505.329 444.988 505.08C444.988 505.08 444.243 503.465 443.001 503.092C441.759 502.719 440.393 503.713 440.393 503.838C440.145 503.962 439.896 503.962 439.648 503.713C439.524 503.465 439.524 503.216 439.772 502.968C439.896 502.968 441.511 501.476 443.374 502.098C445.113 502.719 445.982 504.583 445.982 504.708C446.106 504.956 445.982 505.329 445.734 505.329C445.609 505.453 445.485 505.453 445.485 505.453Z" fill="white"/>
<path d="M426.608 493.274C427.85 493.647 428.595 494.765 428.843 496.008C428.967 497.127 429.092 498.618 429.092 500.731C428.967 505.329 428.843 507.318 428.843 507.318C428.843 507.318 427.477 509.679 423.379 510.425L421.888 510.673C421.888 510.673 413.07 516.017 408.848 516.514C403.259 517.012 397.546 514.526 402.266 509.058C406.612 503.962 412.946 501.849 414.933 497.748C415.182 497.251 416.548 496.257 416.92 495.884C419.901 492.777 422.261 491.907 426.608 493.274Z" fill="#FF4A67"/>
<path d="M417.045 503.216C416.796 503.216 416.672 503.092 416.548 502.843C416.548 502.843 415.803 501.228 414.561 500.855C413.319 500.482 411.953 501.476 411.953 501.601C411.704 501.725 411.456 501.725 411.207 501.476C411.083 501.228 411.083 500.979 411.332 500.731C411.456 500.731 413.07 499.239 414.933 499.861C416.672 500.482 417.541 502.346 417.541 502.471C417.666 502.719 417.541 503.092 417.293 503.092C417.169 503.216 417.045 503.216 417.045 503.216Z" fill="white"/>
<path d="M415.182 504.583C414.933 504.583 414.809 504.459 414.685 504.211C414.685 504.211 413.94 502.595 412.698 502.222C411.456 501.849 410.09 502.843 410.09 502.968C409.841 503.092 409.593 503.092 409.345 502.843C409.22 502.595 409.22 502.346 409.469 502.098C409.593 502.098 411.207 500.606 413.07 501.228C414.809 501.849 415.678 503.713 415.678 503.838C415.803 504.086 415.678 504.459 415.43 504.459C415.306 504.583 415.306 504.583 415.182 504.583Z" fill="white"/>
<path d="M413.195 505.702C412.946 505.702 412.822 505.578 412.698 505.329C412.698 505.329 411.953 503.713 410.711 503.341C409.469 502.968 408.103 503.962 408.103 504.086C407.854 504.211 407.606 504.211 407.357 503.962C407.233 503.713 407.233 503.465 407.482 503.216C407.606 503.216 409.22 501.725 411.083 502.346C412.822 502.968 413.691 504.832 413.691 504.956C413.816 505.205 413.691 505.578 413.443 505.578C413.319 505.702 413.195 505.702 413.195 505.702Z" fill="white"/>
<path d="M460.14 359.92L416.548 358.677C413.816 374.088 407.482 408.389 409.593 423.055C412.946 446.668 418.411 496.256 418.411 496.256C422.137 497.126 423.006 497.126 426.732 495.759C426.732 495.759 430.085 441.821 426.235 425.292C423.875 415.225 431.203 396.583 434.059 381.793C434.059 381.793 434.929 378.686 436.543 378.686C437.537 378.686 438.158 380.177 438.406 381.172C439.524 394.718 440.89 411.124 442.132 421.439C444.492 441.945 451.322 497.002 451.322 497.002C455.048 497.872 455.172 498.121 458.898 496.754C458.898 496.754 461.755 433.867 459.395 421.936C455.793 403.045 459.892 373.715 460.14 359.92Z" fill="#FCB38F"/>
<path d="M409.22 413.733C413.691 415.225 418.659 415.225 423.875 414.479C424.248 414.479 424.496 414.355 424.869 414.355C425.738 414.231 426.732 413.982 427.601 413.858C428.471 404.288 431.948 392.357 434.059 381.793C434.059 381.793 434.929 378.686 436.543 378.686C437.537 378.686 438.158 380.177 438.406 381.172C439.275 391.736 440.269 404.04 441.263 413.858C446.976 415.225 452.068 415.473 456.539 414.603C456.911 414.603 457.159 414.479 457.532 414.355C458.277 414.231 459.022 413.982 459.643 413.733C457.656 395.464 459.892 372.099 460.14 359.92L416.548 358.677C414.312 371.353 409.593 396.955 409.22 413.733Z" fill="#252B3D"/>
<path d="M423.875 414.479C424.248 414.479 424.496 414.355 424.869 414.355C426.483 401.554 431.327 380.799 431.327 380.55C431.451 380.302 431.203 380.053 430.954 379.929C430.706 379.929 430.458 380.053 430.333 380.302C430.209 381.296 425.49 401.803 423.875 414.479Z" fill="#6B749B"/>
<path d="M455.793 410.378C455.917 411.372 456.166 412.366 456.538 414.604C456.911 414.604 457.159 414.479 457.532 414.355C457.035 412.242 456.911 411.124 456.787 410.254C455.917 405.158 456.663 376.449 456.663 376.201C456.663 375.952 456.414 375.703 456.166 375.703C455.917 375.703 455.669 375.952 455.669 376.201C455.669 377.319 454.924 405.158 455.793 410.378Z" fill="#6B749B"/>
<path d="M459.395 410.254C460.761 411.124 460.761 414.231 460.513 415.846C460.513 415.846 448.59 418.953 441.138 416.219C440.393 415.598 439.896 412.864 440.766 410.751C440.766 410.751 452.192 412.118 459.395 410.254Z" fill="#6B749B"/>
<path d="M428.098 410.502C428.843 411.621 428.719 414.976 427.725 415.971C427.725 415.971 416.548 418.829 409.096 416.095C408.351 415.473 407.978 412.242 409.469 410.129C409.345 410.254 420.895 412.366 428.098 410.502Z" fill="#6B749B"/>
<path d="M423.503 305.608C421.391 316.421 411.953 324.499 411.953 324.499L403.88 317.291C404.377 316.918 404.998 316.297 405.619 315.427C405.867 315.178 405.991 314.805 406.24 314.432C411.828 305.236 420.77 278.515 420.77 278.515C420.77 278.515 425.614 294.92 423.503 305.608Z" fill="#D5243A"/>
<path d="M412.822 323.008C412.822 323.008 410.959 328.103 404.253 327.358C397.422 326.612 380.904 306.976 380.904 306.976C383.14 306.976 385.002 306.354 388.107 305.36C388.107 305.36 395.683 312.817 403.135 314.681C410.462 316.421 412.822 323.008 412.822 323.008Z" fill="#D5243A"/>
<path d="M409.841 320.398C409.717 320.398 409.717 320.398 409.593 320.398C409.345 320.398 409.22 320.274 409.096 320.025C408.103 317.912 406.488 316.297 405.495 315.427C405.743 315.178 405.867 314.805 406.116 314.432C407.233 315.302 409.096 317.042 410.09 319.528C410.338 319.901 410.214 320.274 409.841 320.398Z" fill="#B11118"/>
<path d="M371.093 287.09L372.459 286.593L372.086 287.339L371.093 287.09Z" fill="#252B3D"/>
<path d="M382.767 287.96L391.585 302.626C392.206 303.62 391.709 304.614 390.715 304.49L387.486 304.117L381.898 303.496C381.525 303.496 381.028 303.123 380.78 302.75L372.086 288.209C371.465 287.339 371.962 286.22 372.831 286.22L381.649 286.966C382.146 287.215 382.519 287.463 382.767 287.96Z" fill="#252B3D"/>
<path d="M391.336 304.49L390.343 305.111L389.846 304.614L391.212 303.868L391.336 304.49Z" fill="#252B3D"/>
<path d="M370.844 288.955L379.662 303.496C379.911 303.868 380.283 304.241 380.78 304.241L389.722 305.236C390.715 305.36 391.088 304.241 390.591 303.247L381.649 288.458C381.401 287.96 380.904 287.712 380.531 287.712L371.714 286.966C370.72 286.966 370.348 287.96 370.844 288.955Z" fill="#51557C"/>
<path d="M381.277 296.287C381.898 297.406 382.022 298.524 381.525 298.773C381.028 299.146 380.035 298.524 379.414 297.406C378.793 296.287 378.669 295.169 379.165 294.92C379.662 294.672 380.656 295.293 381.277 296.287Z" fill="#252B3D"/>
<path d="M373.204 293.926C373.204 293.802 372.335 291.565 373.08 291.192C373.328 291.067 373.825 291.44 374.198 292.062C374.819 292.932 375.44 294.175 375.564 294.547C375.564 294.547 375.564 294.423 375.44 294.423C375.44 294.299 375.315 294.299 375.315 294.175C374.943 293.056 374.073 290.695 374.694 290.073C375.191 289.7 376.185 291.192 377.054 292.683C377.675 293.802 378.296 295.044 378.296 295.169C378.296 295.169 378.172 294.92 378.172 294.796C377.923 293.802 377.302 291.689 378.172 291.067C378.793 290.695 379.786 292.683 380.407 294.423C380.904 295.542 381.152 296.536 381.152 296.536C381.152 296.536 380.904 293.429 381.773 293.553C382.767 293.677 383.264 298.773 384.506 300.264C385.624 301.756 387.983 303.62 387.859 305.236C387.859 306.106 386.369 308.094 382.519 307.97C381.153 307.845 379.786 307.224 378.917 306.23C376.433 302.75 373.577 296.909 373.204 293.926Z" fill="#FCB38F"/>
<path d="M377.178 297.903C377.054 297.779 375.688 296.412 375.315 295.293C374.943 294.175 374.198 292.062 374.198 292.062C374.819 292.932 375.44 294.175 375.564 294.547C375.688 294.796 376.682 297.033 377.178 297.903Z" fill="#FD8471"/>
<path d="M379.662 297.779C379.538 297.654 378.296 295.666 377.799 294.547C377.427 293.802 377.302 292.932 377.302 292.435C377.923 293.553 378.544 294.796 378.544 294.92C378.544 295.044 379.414 297.282 379.662 297.779Z" fill="#FD8471"/>
<path d="M381.774 298.4C381.774 298.4 380.407 295.542 380.656 294.175C381.153 295.293 381.401 296.287 381.401 296.287" fill="#FD8471"/>
<path d="M459.271 368.868C450.08 375.952 413.816 367.625 416.424 358.18C418.162 352.214 424 326.736 423.13 318.907C422.261 311.077 416.175 306.23 420.149 297.282C422.509 292.062 422.261 286.842 420.895 281.995C419.777 278.018 421.143 276.278 425.117 275.781C426.856 275.532 429.837 275.408 432.569 275.781C438.158 276.651 444.616 277.645 449.956 278.888C454.055 279.758 457.656 280.752 459.892 281.746C469.579 285.972 456.29 306.23 454.303 318.161C452.316 329.968 464.114 365.015 459.271 368.868Z" fill="#FF4A67"/>
<path d="M439.275 319.279C429.092 319.279 423.503 316.297 423.254 316.172C423.006 316.048 422.882 315.675 423.006 315.427C423.13 315.178 423.503 315.054 423.751 315.178C423.875 315.178 431.575 319.279 445.609 317.788C445.982 317.788 446.23 318.037 446.23 318.285C446.23 318.658 445.982 318.907 445.734 318.907C443.498 319.155 441.387 319.279 439.275 319.279Z" fill="#D5243A"/>
<path d="M436.916 298.649H436.792C430.333 296.66 428.967 292.31 428.843 292.186C428.719 291.938 428.967 291.565 429.216 291.44C429.464 291.316 429.837 291.565 429.961 291.813C429.961 291.938 431.327 295.79 437.164 297.53C437.413 297.654 437.661 297.903 437.537 298.276C437.413 298.4 437.164 298.649 436.916 298.649Z" fill="#D5243A"/>
<path d="M444.243 358.677C430.209 358.677 422.261 350.971 421.888 350.598C421.64 350.35 421.64 349.977 421.888 349.853C422.137 349.604 422.509 349.604 422.633 349.853C422.758 349.977 430.582 357.558 444.119 357.558C444.492 357.558 444.74 357.807 444.74 358.18C444.74 358.428 444.492 358.677 444.243 358.677Z" fill="#D5243A"/>
<path d="M442.504 356.067C437.288 355.942 430.706 351.717 430.333 351.468C430.085 351.344 429.961 350.971 430.209 350.723C430.333 350.474 430.706 350.35 430.954 350.598C431.079 350.598 437.537 354.824 442.504 354.948C442.877 354.948 443.125 355.197 443.001 355.57C443.125 355.818 442.877 356.067 442.504 356.067Z" fill="#D5243A"/>
<path d="M445.609 268.324C445.609 268.324 453.185 265.59 454.676 257.76C456.166 250.055 455.793 238.621 445.237 235.389C434.68 232.034 424.993 235.265 422.633 244.959C422.509 245.083 430.582 264.471 445.609 268.324Z" fill="#252B3D"/>
<path d="M433.811 272.052L434.432 277.397L434.804 280.504C440.89 283.113 447.1 279.136 447.1 278.639C446.479 276.278 445.982 272.177 445.734 268.324C445.609 268.2 445.485 268.2 445.361 268.2C442.008 266.833 433.811 272.052 433.811 272.052Z" fill="#FCB38F"/>
<path d="M433.811 272.052L434.432 277.397C440.517 275.284 443.871 270.685 445.361 268.2C442.008 266.833 433.811 272.052 433.811 272.052Z" fill="#FD8471"/>
<path d="M425.366 255.15C425.366 255.15 423.006 252.292 421.516 254.902C420.025 257.387 422.758 264.471 426.608 262.483L425.366 255.15Z" fill="#FD8471"/>
<path d="M424.248 261.364C424.248 261.613 423.875 261.861 423.627 261.737C423.379 261.737 423.13 261.364 423.254 261.116C423.254 260.867 423.627 260.618 423.875 260.743C424.124 260.867 424.248 261.116 424.248 261.364Z" fill="white"/>
<path d="M425.614 260.37C425.49 260.37 425.366 260.246 425.241 260.121C424.496 257.884 422.137 257.139 422.137 257.139C422.012 257.139 421.888 256.89 421.888 256.766C421.888 256.642 422.137 256.517 422.261 256.517C422.385 256.517 424.993 257.387 425.862 259.873C425.987 260.121 425.987 260.246 425.614 260.37C425.738 260.37 425.738 260.37 425.614 260.37Z" fill="#D6615D"/>
<path d="M423.254 259.376C423.13 259.376 423.13 259.376 423.006 259.376C422.882 259.251 422.758 259.127 422.882 258.879C422.882 258.879 423.254 258.257 424.124 257.76C424.248 257.636 424.496 257.76 424.62 257.884C424.745 258.009 424.62 258.257 424.496 258.381C423.875 258.754 423.503 259.251 423.503 259.251C423.503 259.251 423.379 259.376 423.254 259.376Z" fill="#D6615D"/>
<path d="M422.385 258.63C422.385 259.376 422.509 260.121 422.633 260.867C423.627 266.957 428.967 279.261 439.648 272.922C442.256 271.431 444.119 269.94 445.609 268.324C446.727 267.081 447.597 265.838 448.342 264.347C448.59 263.85 448.714 263.228 448.963 262.607C448.963 262.483 449.087 262.359 449.087 262.234V262.11C449.584 260.37 450.08 258.63 450.329 256.89C450.701 254.777 450.95 252.913 451.074 251.297C451.322 248.315 450.08 245.456 447.721 243.716C441.263 238.994 433.811 239.615 428.719 240.858C425.242 241.728 422.758 244.835 422.509 248.439C422.385 250.179 422.261 252.043 422.261 254.032C422.261 255.647 422.261 257.263 422.385 258.63Z" fill="#FCB38F"/>
<path d="M426.856 252.913C426.856 252.54 426.608 252.416 426.235 252.416C425.366 252.416 424.372 252.54 423.379 252.913C421.391 253.535 421.143 254.156 421.143 254.156C421.143 254.156 421.391 254.405 424 253.907C424.62 253.783 425.49 253.659 426.359 253.659C426.732 253.41 426.98 253.162 426.856 252.913Z" fill="#252B3D"/>
<path d="M434.183 252.416C434.183 252.043 434.432 251.67 434.804 251.67C435.798 251.546 437.04 251.422 438.282 251.546C440.766 251.919 441.263 252.54 441.263 252.54C441.263 252.54 441.014 252.913 437.909 252.789C437.04 252.789 436.046 252.913 435.177 253.037C434.556 253.037 434.183 252.789 434.183 252.416Z" fill="#252B3D"/>
<path d="M432.445 263.353L430.085 262.483L430.954 257.014C430.954 256.766 431.203 256.642 431.451 256.642C431.7 256.642 431.824 256.89 431.824 257.139L431.079 261.861L432.569 262.483C432.817 262.607 432.942 262.856 432.817 263.104C432.817 263.229 432.569 263.353 432.445 263.353Z" fill="#FD8471"/>
<path d="M444.74 262.11C444.74 262.11 445.858 264.223 448.342 264.347C448.59 263.726 448.714 263.229 448.963 262.607C447.721 262.856 445.858 262.98 444.74 262.11Z" fill="#FD8471"/>
<path d="M445.609 268.324C446.727 267.081 447.596 265.838 448.342 264.347C448.59 263.85 448.714 263.229 448.963 262.607C448.963 262.483 449.087 262.359 449.087 262.234C448.838 262.234 448.466 262.359 447.721 262.607C447.721 262.607 444.864 265.963 445.609 268.324Z" fill="#252B3D"/>
<path d="M428.843 265.963C429.34 267.454 430.83 270.313 434.308 269.815C437.785 269.318 438.406 266.584 438.53 264.72L428.843 265.963Z" fill="white"/>
<path d="M435.798 257.139C435.798 258.009 436.295 258.63 436.916 258.63C437.412 258.63 437.909 257.884 437.785 257.014C437.785 256.144 437.288 255.523 436.667 255.523C436.171 255.523 435.798 256.269 435.798 257.139Z" fill="#252B3D"/>
<path d="M424.745 257.76C424.745 258.63 425.242 259.251 425.862 259.251C426.359 259.251 426.856 258.506 426.732 257.636C426.732 256.766 426.235 256.144 425.614 256.144C425.117 256.269 424.745 256.89 424.745 257.76Z" fill="#252B3D"/>
<path d="M447.969 255.772C447.969 255.772 450.453 253.286 451.695 255.772C452.937 258.257 450.453 264.471 446.106 262.607L447.969 255.772Z" fill="#FCB38F"/>
<path d="M448.838 262.11C448.838 262.358 448.466 262.607 448.217 262.483C447.969 262.483 447.721 262.11 447.845 261.861C447.845 261.613 448.218 261.364 448.466 261.489C448.714 261.613 448.838 261.861 448.838 262.11Z" fill="white"/>
<path d="M447.348 260.619C447.472 260.619 447.597 260.619 447.721 260.37C448.59 258.381 450.826 257.76 450.826 257.76C450.95 257.76 451.074 257.512 451.074 257.387C451.074 257.263 450.826 257.139 450.701 257.139C450.577 257.139 448.093 257.76 447.1 260.121C446.976 260.37 447.1 260.494 447.348 260.619C447.224 260.619 447.224 260.619 447.348 260.619Z" fill="#FD8471"/>
<path d="M449.584 259.873H449.708C449.832 259.749 449.956 259.624 449.832 259.5C449.832 259.5 449.459 258.879 448.714 258.381C448.59 258.257 448.342 258.381 448.217 258.506C448.093 258.63 448.217 258.879 448.342 259.003C448.963 259.376 449.211 259.873 449.211 259.873C449.459 259.749 449.584 259.873 449.584 259.873Z" fill="#FD8471"/>
<path d="M450.701 254.777C449.583 254.653 448.838 254.653 448.342 254.902C447.969 255.15 447.596 255.399 447.348 255.772C447.348 255.896 447.224 255.896 447.224 256.02C446.975 256.766 446.603 257.139 446.479 257.263C445.982 257.884 445.361 259.251 445.113 259.003C444.616 258.133 444.988 253.534 444.74 252.664C444.367 251.422 443.001 250.303 443.001 250.303C432.196 253.659 423.751 244.338 423.751 244.338C427.104 234.147 445.113 238.994 449.832 241.479C454.427 243.84 456.042 255.647 450.701 254.777Z" fill="#252B3D"/>
<path d="M426.111 244.959C426.111 244.959 426.98 252.043 422.137 254.529C422.137 254.529 420.025 240.112 426.111 244.959Z" fill="#252B3D"/>
<path d="M448.714 354.203C448.714 354.203 443.871 355.197 442.132 356.564C440.517 357.931 437.164 360.541 439.151 360.417C439.4 360.417 440.517 359.92 441.511 359.422C442.629 358.801 443.126 358.677 443.498 358.925C444.119 359.547 441.138 362.529 440.021 364.021C439.027 365.637 436.419 368.371 437.04 369.738C437.537 370.981 439.896 367.625 441.014 366.258C442.132 365.015 442.753 364.021 442.877 364.269C443.126 364.518 437.661 370.111 437.909 371.975C438.282 373.839 444.119 366.134 444.74 366.134C445.485 366.009 440.269 371.105 440.021 372.223C439.772 373.342 443.126 370.732 445.982 367.874C445.982 367.874 446.479 367.874 445.982 368.371C445.485 368.868 443.25 370.856 443.125 371.975C442.877 373.093 447.845 368.744 450.329 365.761C452.813 362.778 453.185 358.677 453.185 358.677C453.185 358.677 449.956 356.813 448.714 354.203Z" fill="#FCB38F"/>
<path d="M475.913 324.624C475.913 324.624 474.05 325.618 471.318 325.991C469.703 326.239 467.84 326.239 465.977 325.742L465.729 325.121L456.042 298.773C456.042 298.773 456.414 287.091 462.376 283.735C462.5 283.859 472.932 306.479 475.913 324.624Z" fill="#FF768C"/>
<path d="M474.671 335.685C471.566 342.52 453.682 359.795 453.682 359.795C451.447 358.925 449.956 356.813 448.714 354.203C448.714 354.203 457.159 342.893 460.14 337.549C462.5 333.075 464.984 328.104 465.853 326.364C465.977 325.991 466.101 325.742 466.101 325.742L469.827 325.245L475.913 324.499C475.913 324.624 477.776 328.849 474.671 335.685Z" fill="#FF768C"/>
<path d="M471.318 326.239C471.318 326.364 471.318 326.364 471.193 326.488C471.069 326.612 470.821 326.736 470.572 326.612C468.834 326.115 467.095 326.115 465.729 326.239C465.853 325.866 465.977 325.618 465.977 325.618L465.729 324.996C466.847 324.872 468.213 324.872 469.703 325.121C470.076 325.245 470.448 325.245 470.821 325.369C471.069 325.494 471.193 325.618 471.193 325.866C471.318 326.115 471.318 326.239 471.318 326.239Z" fill="#D5243A"/>
<path d="M379.041 154.234L383.636 164.3V156.968L379.041 154.234Z" fill="#FF4A67"/>
<path d="M383.636 164.3L385.872 163.058V158.211L383.636 156.968V164.3Z" fill="#B11118"/>
<path d="M404.998 129.129V162.685L399.161 166.04L399.782 132.236L404.998 129.129Z" fill="#B11118"/>
<path d="M369.727 114.96V149.014L399.161 166.04L399.782 132.236L369.727 114.96Z" fill="#FF4A67"/>
<path d="M385.748 145.161L381.152 142.551L380.532 127.14L387.362 131.117L385.748 145.161ZM383.14 153.364C381.152 152.245 379.786 149.635 379.911 147.274C380.035 145.037 381.401 144.042 383.388 145.161C385.375 146.28 386.741 148.889 386.617 151.126C386.617 153.488 385.127 154.482 383.14 153.364Z" fill="white"/>
<path d="M404.998 129.129L375.067 111.854L369.727 114.961L399.782 132.236L404.998 129.129Z" fill="#D5243A"/>
<path d="M470.448 111.232L474.919 120.926V113.718L470.448 111.232Z" fill="#FF4A67"/>
<path d="M474.919 120.926L477.155 119.683V115.085L474.919 113.718V120.926Z" fill="#B11118"/>
<path d="M485.6 81.2803V113.593L480.011 116.701L480.508 84.263L485.6 81.2803Z" fill="#B11118"/>
<path d="M439.648 60.6494V93.4598L480.011 116.7L480.508 84.2629L439.648 60.6494Z" fill="#FF4A67"/>
<path d="M465.977 87.7427C464.487 87.7427 463.493 89.7312 463.866 92.0925C464.238 94.4539 465.729 96.4424 467.219 96.4424C468.709 96.4424 469.703 94.4539 469.33 92.0925C468.958 89.7312 467.467 87.7427 465.977 87.7427Z" fill="white"/>
<path d="M458.029 83.6415C456.538 83.6415 455.545 85.63 455.917 87.9914C456.29 90.3527 457.78 92.3412 459.271 92.3412C460.761 92.3412 461.755 90.3527 461.382 87.9914C461.009 85.5057 459.519 83.5172 458.029 83.6415Z" fill="white"/>
<path d="M450.08 79.4159C448.59 79.4159 447.596 81.4044 447.969 83.7658C448.342 86.1271 449.832 88.1156 451.322 88.1156C452.813 88.1156 453.806 86.1271 453.433 83.7658C453.061 81.2801 451.571 79.2916 450.08 79.4159Z" fill="white"/>
<path d="M485.6 81.2803L444.74 57.6667L439.648 60.6495L480.508 84.263L485.6 81.2803Z" fill="#D5243A"/>
<path d="M140.215 27.7148V96.8154C140.215 97.064 140.34 97.4368 140.588 97.5611L225.04 146.404C225.164 146.528 225.289 146.528 225.413 146.528C225.785 146.528 226.282 146.155 226.282 145.658V76.6818C226.282 76.4332 226.158 76.0604 225.91 75.9361L141.457 27.0934C141.333 26.9692 141.209 26.9692 141.085 26.9692C140.588 26.8449 140.215 27.2177 140.215 27.7148Z" fill="#E5E5E5"/>
<path d="M171.016 102.035L175.611 112.226V104.77L171.016 102.035Z" fill="#FF4A67"/>
<path d="M175.611 112.226L177.971 110.859V106.012L175.611 104.77V112.226Z" fill="#B11118"/>
<path d="M197.096 76.9304V110.486L191.259 113.842L191.756 80.0375L197.096 76.9304Z" fill="#B11118"/>
<path d="M161.701 62.6379V96.8154L191.259 113.842L191.756 80.0374L161.701 62.6379Z" fill="#FF4A67"/>
<path d="M197.096 76.9304L167.041 59.531L161.701 62.638L191.756 80.0375L197.096 76.9304Z" fill="#D5243A"/>
<path d="M166.917 82.3987C166.793 87.6186 171.14 94.454 176.48 97.6854C181.82 100.917 186.291 99.301 186.416 94.0812C186.54 88.8614 182.193 82.0259 176.853 78.7946C171.512 75.5632 167.041 77.1789 166.917 82.3987ZM172.382 89.1099C172.133 87.8671 171.885 86.6243 171.885 85.5058L176.356 88.24V91.5956L172.382 89.1099ZM174.617 95.5726C172.133 93.5841 170.022 90.7256 168.78 87.8671L171.761 89.6071C172.133 90.9742 172.754 92.3413 173.375 93.5841C173.872 94.2055 174.245 94.9512 174.617 95.5726ZM176.232 92.217L176.108 96.6911C175.859 96.3183 174.866 95.1997 173.996 93.4598C173.375 92.3412 172.878 91.2227 172.63 90.1042L176.232 92.217ZM173.003 81.2802C174.12 79.6645 175.611 79.1674 176.108 79.1674C176.232 79.1674 176.356 79.2917 176.48 79.416V83.393L173.003 81.2802ZM169.277 79.0431C170.519 77.9246 172.506 77.676 174.866 78.546C174.369 78.7946 173.996 78.9188 173.624 79.2917C173.127 79.6645 172.63 80.1617 172.258 80.7831L169.277 79.0431ZM172.009 84.7601C172.133 83.6415 172.258 82.6473 172.754 81.9016L176.48 84.1387V87.4943L172.009 84.7601ZM167.787 82.2744C167.911 81.1559 168.159 80.2859 168.78 79.5402L171.885 81.4045C171.512 82.2744 171.264 83.2687 171.264 84.3872L167.787 82.2744ZM171.14 85.0086C171.14 86.1272 171.264 87.37 171.637 88.6128L168.532 86.7486C168.035 85.3815 167.787 84.1387 167.787 83.0201L171.14 85.0086ZM182.193 91.7198L185.671 93.8326C185.671 94.9512 185.298 95.9454 184.925 96.6911L181.696 94.8269C182.069 93.8326 182.193 92.8384 182.193 91.7198ZM177.225 83.8901V79.9131C177.349 79.9131 177.349 80.0374 177.474 80.0374C177.846 80.5345 178.591 81.7773 179.461 83.393C179.833 84.2629 180.206 85.1329 180.579 85.8786L177.225 83.8901ZM180.827 86.7486C181.2 88.1157 181.448 89.3585 181.448 90.477L177.101 87.8671V84.5115L180.827 86.7486ZM181.324 86.3757C180.951 85.3815 180.579 84.2629 180.082 83.2687C179.709 82.523 179.337 81.7773 178.84 81.0316C181.075 82.8958 183.062 85.5058 184.429 88.24L181.324 86.3757ZM181.448 91.2227C181.448 92.3413 181.2 93.3355 180.827 94.2055L176.977 91.9684V88.6128L181.448 91.2227ZM182.193 90.9742C182.193 89.8556 181.945 88.6128 181.572 87.2457L184.677 89.1099C185.174 90.477 185.546 91.7198 185.546 92.9627L182.193 90.9742ZM184.553 97.1882C183.311 98.5553 181.075 98.8039 178.467 97.8096C178.964 97.6854 179.337 97.5611 179.709 97.3125C180.454 96.8154 181.075 96.194 181.448 95.324L184.553 97.1882ZM180.579 94.8269C179.461 96.9397 177.598 97.0639 176.977 97.0639L177.101 92.7141L180.579 94.8269Z" fill="white"/>
<g opacity="0.1">
<path d="M214.359 83.7659C214.235 83.7659 213.987 83.7659 213.863 83.6416L150.524 46.9786C150.027 46.73 149.778 45.9843 150.151 45.4872C150.399 44.9901 151.145 44.7415 151.641 45.1143L214.98 81.7774C215.477 82.026 215.726 82.7717 215.353 83.2688C215.105 83.5173 214.732 83.7659 214.359 83.7659Z" fill="#252B3D"/>
</g>
<g opacity="0.1">
<path d="M214.359 133.603C214.235 133.603 213.987 133.603 213.863 133.479L150.524 96.8155C150.027 96.5669 149.778 95.8212 150.151 95.3241C150.399 94.827 151.145 94.5784 151.641 94.9512L214.98 131.614C215.477 131.863 215.726 132.609 215.353 133.106C215.105 133.354 214.732 133.603 214.359 133.603Z" fill="#252B3D"/>
</g>
<path opacity="0.1" d="M140.215 27.7148V31.0704L226.406 80.9074V76.6818C226.406 76.4332 226.282 76.0604 226.034 75.9361L141.582 27.0934C141.457 26.9692 141.333 26.9692 141.209 26.9692C140.588 26.8449 140.215 27.2177 140.215 27.7148Z" fill="#252B3D"/>
<path d="M222.184 76.4333C222.184 77.0548 222.556 77.4276 223.053 77.4276C223.426 77.4276 223.798 76.9305 223.798 76.4333C223.798 75.8119 223.426 75.4391 222.929 75.4391C222.556 75.3148 222.184 75.8119 222.184 76.4333Z" fill="#FF7A8C"/>
<path d="M219.824 75.1904C219.824 75.8118 220.197 76.1847 220.693 76.1847C221.066 76.1847 221.439 75.6876 221.439 75.1904C221.439 74.569 221.066 74.1962 220.569 74.1962C220.072 74.0719 219.824 74.569 219.824 75.1904Z" fill="#3A4059"/>
<path d="M217.713 73.9476C217.713 74.569 218.085 74.9419 218.582 74.9419C218.955 74.9419 219.327 74.4447 219.327 73.9476C219.327 73.3262 218.955 72.9534 218.458 72.9534C217.961 72.9534 217.589 73.3262 217.713 73.9476Z" fill="#D5243A"/>
<path d="M186.144 334.292C188.676 328.809 178.715 318.808 163.895 311.956C149.076 305.103 135.01 303.992 132.478 309.476C129.946 314.959 139.906 324.959 154.726 331.812C169.545 338.665 183.612 339.776 186.144 334.292Z" fill="#A60000"/>
<path d="M165.303 333.323L177.846 326.239C179.212 325.494 180.082 324.002 180.082 322.511V259.376L165.799 267.703L165.303 333.323Z" fill="#B11118"/>
<path d="M165.675 267.703L137.11 251.546V314.433C137.11 316.048 137.98 317.54 139.346 318.285L165.178 333.323L165.675 267.703Z" fill="#FF4A67"/>
<path d="M162.074 295.293L158.72 293.056L158.596 305.608C158.596 307.224 157.354 307.846 155.988 306.851C154.498 305.857 153.38 303.744 153.38 302.129L153.504 289.576L150.151 287.339L153.132 285.972L156.112 284.605L159.093 289.949L162.074 295.293Z" fill="#D5243A"/>
<path d="M151.393 300.264L148.04 298.027L148.164 285.475C148.164 283.859 147.046 281.746 145.556 280.752C144.065 279.758 142.948 280.379 142.948 281.995L142.823 294.547L139.47 292.31L142.451 297.654L145.432 302.999L148.412 301.631L151.393 300.264Z" fill="#D5243A"/>
<path d="M180.082 259.376L153.38 244.089C152.262 243.468 150.772 243.468 149.654 244.089L137.235 251.422L165.799 267.578L180.082 259.376Z" fill="#D5243A"/>
<path d="M163.564 263.104L171.636 258.506V241.728L163.688 237.129V246.202L163.564 263.104Z" fill="#A0A0A0"/>
<path d="M148.04 237.378V254.032L163.564 263.104L163.688 246.202V237.129L155.988 232.655L148.04 237.378Z" fill="#C6C6C6"/>
<path d="M148.04 237.378L163.688 246.202H163.812L171.636 241.728L163.688 237.129L155.988 232.655L153.007 234.395L148.04 237.378Z" fill="#E5E5E5"/>
<path d="M148.04 237.378H148.164L163.688 246.202H163.812L167.538 244.089L168.656 243.468L160.707 238.869L153.007 234.395L148.04 237.378Z" fill="#A0A0A0"/>
<path d="M148.04 237.378L163.688 246.202H163.812L167.538 244.089L159.59 239.615L151.89 235.141L148.04 237.378Z" fill="#878787"/>
<path d="M150.772 250.303L154.001 252.167V247.196L150.772 245.332V250.303Z" fill="#A0A0A0"/>
<path d="M155.864 253.037L159.217 254.902V249.93L155.864 247.942V253.037Z" fill="#A0A0A0"/>
<path d="M330.854 444.431L346.875 453.379C349.11 454.871 348.986 458.102 346.626 459.469L258.697 510.3C255.468 512.165 251.369 512.165 248.14 510.3L75.7585 409.757C74.144 408.762 74.144 406.525 75.6343 405.531L92.1521 395.216L250.252 486.563L330.854 444.431Z" fill="#A60000"/>
<path d="M256.089 497.872C257.206 497.872 258.448 497.748 259.814 497.126L261.429 496.132L262.05 495.759L337.063 452.137C338.429 451.391 339.299 449.899 339.299 448.284V439.957C339.299 439.087 338.802 438.217 338.057 437.844L330.233 433.246L256.71 475.75L256.461 488.054L256.089 497.872Z" fill="#252B3D"/>
<path d="M86.5634 389.996V397.95C86.5634 399.938 87.6811 401.927 89.4198 402.921L251.121 496.381L251.493 496.629C252.239 497.002 253.977 497.872 256.089 497.872L256.337 488.178L256.585 475.874L95.8779 383.533L87.8053 388.131C87.0601 388.629 86.6875 389.25 86.5634 389.996Z" fill="#3A4059"/>
<path d="M308.623 435.856L237.211 477.366L98.2377 397.08L170.27 355.818L308.623 435.856Z" fill="white"/>
<path d="M308.623 435.856L237.211 477.366L98.2377 397.08L170.27 355.818L308.623 435.856Z" fill="white"/>
<path d="M311.852 461.582V463.695C311.852 463.819 311.728 464.068 311.604 464.068L291.236 475.874C290.863 475.999 290.49 475.874 290.49 475.501V473.389C290.49 473.264 290.615 473.016 290.739 473.016L311.107 461.209C311.355 460.961 311.852 461.209 311.852 461.582Z" fill="#6B749B"/>
<path d="M311.852 461.582V462.825C311.852 462.949 311.728 463.198 311.604 463.198L291.236 475.004C290.863 475.129 290.49 475.004 290.49 474.631V473.389C290.49 473.264 290.615 473.016 290.739 473.016L311.107 461.209C311.355 460.961 311.852 461.209 311.852 461.582Z" fill="#51557C"/>
<path d="M284.032 478.733C284.032 479.976 283.411 480.97 282.79 480.97C282.666 480.97 282.666 480.97 282.542 480.97C282.045 480.721 281.673 479.851 281.673 478.733C281.673 477.614 282.17 476.744 282.666 476.62C282.79 476.62 282.915 476.62 282.915 476.62C283.536 476.496 284.032 477.49 284.032 478.733Z" fill="#6B749B"/>
<path d="M283.536 478.733C283.536 479.851 283.039 480.721 282.542 480.846C282.045 480.597 281.673 479.727 281.673 478.609C281.673 477.49 282.17 476.62 282.666 476.496C283.163 476.744 283.536 477.614 283.536 478.733Z" fill="#51557C"/>
<path d="M86.5634 390.866C86.6875 391.611 87.0601 392.233 87.8053 392.606L250.376 486.563C252.239 487.681 254.35 488.178 256.337 488.054C258.2 488.054 260.187 487.557 261.926 486.563L338.057 442.318C338.926 441.821 339.299 440.951 339.299 440.206V440.081C339.299 439.211 338.802 438.341 338.057 437.968L330.233 433.37L299.681 415.722L218.085 368.619L171.512 341.774C170.767 341.277 169.774 341.277 168.904 341.774L95.8779 383.657L87.8053 388.256C87.0601 388.629 86.6875 389.374 86.5634 389.996C86.5634 390.244 86.5634 390.617 86.5634 390.866Z" fill="#51557C"/>
<path d="M297.818 455.244C298.066 459.096 293.471 460.96 288.131 460.96C282.79 460.96 278.195 459.221 278.444 455.119C278.568 452.385 282.79 451.018 288.131 451.018C293.471 451.142 297.694 452.509 297.818 455.244Z" fill="#3A4059"/>
<path d="M288.131 460.215C293.481 460.215 297.818 457.989 297.818 455.243C297.818 452.498 293.481 450.272 288.131 450.272C282.781 450.272 278.444 452.498 278.444 455.243C278.444 457.989 282.781 460.215 288.131 460.215Z" fill="#6B749B"/>
<path opacity="0.3" d="M295.707 454.871C295.707 456.983 292.353 458.723 288.131 458.723C283.908 458.723 280.555 456.983 280.555 454.871C280.555 452.758 283.908 451.018 288.131 451.018C292.353 451.018 295.707 452.758 295.707 454.871Z" fill="#6B749B"/>
<path d="M103.826 391.736L107.676 393.973L120.468 401.43L149.157 417.959L180.33 435.98L192.874 443.188L215.601 456.362L235.472 467.796C237.46 468.915 239.819 468.915 241.806 467.796L244.29 466.305L269.998 451.391L282.542 444.183L306.76 430.139C308.25 429.269 308.25 427.156 306.76 426.286L282.542 412.242L269.998 405.034L244.29 390.244L215.601 373.715L192.874 360.541L180.33 353.333L179.461 352.836L174.741 350.101C172.754 348.983 170.395 348.983 168.532 350.101L149.282 361.162L120.468 377.319L103.826 386.889C101.963 387.883 101.963 390.617 103.826 391.736Z" fill="white"/>
<path d="M242.303 452.261C242.551 452.261 242.924 452.137 243.172 452.012L287.261 426.286C288.131 425.789 288.379 424.795 287.882 423.925C287.386 423.055 286.392 422.806 285.523 423.303L241.434 449.029C240.564 449.527 240.316 450.521 240.813 451.391C241.185 451.888 241.682 452.261 242.303 452.261Z" fill="#E5E5E5"/>
<path d="M230.38 445.674C230.629 445.674 231.001 445.55 231.25 445.425L275.339 419.699C276.208 419.202 276.457 418.208 275.96 417.338C275.463 416.468 274.469 416.219 273.6 416.716L229.511 442.443C228.642 442.94 228.393 443.934 228.89 444.804C229.263 445.301 229.76 445.674 230.38 445.674Z" fill="#E5E5E5"/>
<path d="M218.458 439.087C218.706 439.087 219.079 438.963 219.327 438.838L263.416 413.112C264.285 412.615 264.534 411.621 264.037 410.751C263.54 409.881 262.547 409.632 261.677 410.129L217.588 435.856C216.719 436.353 216.471 437.347 216.967 438.217C217.34 438.714 217.837 439.087 218.458 439.087Z" fill="#E5E5E5"/>
<path d="M206.535 432.5C206.784 432.5 207.156 432.376 207.405 432.251L251.493 406.525C252.363 406.028 252.611 405.034 252.114 404.164C251.618 403.294 250.624 403.045 249.755 403.542L205.666 429.269C204.796 429.766 204.548 430.76 205.045 431.63C205.417 432.127 205.914 432.5 206.535 432.5Z" fill="#E5E5E5"/>
<path d="M194.612 425.913C194.861 425.913 195.233 425.789 195.482 425.664L239.571 399.938C240.44 399.441 240.689 398.447 240.192 397.577C239.695 396.707 238.701 396.458 237.832 396.955L193.743 422.682C192.874 423.179 192.625 424.173 193.122 425.043C193.37 425.54 193.991 425.913 194.612 425.913Z" fill="#E5E5E5"/>
<path d="M182.69 419.326C182.938 419.326 183.311 419.202 183.559 419.078L227.648 393.351C228.518 392.854 228.766 391.86 228.269 390.99C227.772 390.12 226.779 389.871 225.909 390.368L181.82 416.095C180.951 416.592 180.703 417.586 181.199 418.456C181.448 418.953 182.069 419.326 182.69 419.326Z" fill="#E5E5E5"/>
<path d="M170.767 412.739C171.016 412.739 171.388 412.615 171.637 412.491L215.726 386.764C216.595 386.267 216.843 385.273 216.347 384.403C215.85 383.533 214.856 383.284 213.987 383.782L169.898 409.508C169.028 410.005 168.78 410.999 169.277 411.869C169.525 412.366 170.146 412.739 170.767 412.739Z" fill="#E5E5E5"/>
<path d="M158.844 406.152C159.093 406.152 159.465 406.028 159.714 405.904L203.803 380.177C204.672 379.68 204.921 378.686 204.424 377.816C203.927 376.946 202.933 376.698 202.064 377.195L157.975 402.921C157.106 403.418 156.857 404.412 157.354 405.282C157.603 405.779 158.224 406.152 158.844 406.152Z" fill="#E5E5E5"/>
<path d="M146.798 399.565C147.046 399.565 147.419 399.441 147.667 399.317L191.756 373.59C192.625 373.093 192.874 372.099 192.377 371.229C191.88 370.359 190.887 370.111 190.017 370.608L145.928 396.334C145.059 396.831 144.81 397.825 145.307 398.695C145.68 399.192 146.301 399.565 146.798 399.565Z" fill="#E5E5E5"/>
<path d="M134.875 392.978C135.123 392.978 135.496 392.854 135.744 392.73L179.833 367.004C180.703 366.506 180.951 365.512 180.454 364.642C179.958 363.772 178.964 363.524 178.095 364.021L134.006 389.747C133.136 390.244 132.888 391.239 133.385 392.108C133.757 392.73 134.378 392.978 134.875 392.978Z" fill="#E5E5E5"/>
<path d="M103.826 391.736L107.676 393.973L179.337 352.587L174.617 349.853C172.63 348.734 170.27 348.734 168.407 349.853L149.157 360.914L120.468 377.319L103.826 386.889C101.963 387.883 101.963 390.617 103.826 391.736Z" fill="#51557C"/>
<path d="M130.28 376.573C130.528 376.573 130.776 376.449 130.901 376.325L157.106 361.287C157.727 360.914 157.727 360.417 157.23 360.044C156.733 359.671 155.74 359.671 155.119 360.044L128.914 375.082C128.293 375.455 128.293 375.952 128.789 376.325C129.286 376.573 129.783 376.698 130.28 376.573Z" fill="#6B749B"/>
<path d="M244.414 403.915C244.414 404.288 244.29 404.661 244.042 404.785L198.214 431.257C198.09 431.257 197.966 431.381 197.842 431.381C197.593 431.381 197.469 431.381 197.345 431.257L168.283 413.485C168.035 413.361 167.911 412.988 167.911 412.739V405.034L173.996 408.762L213.242 386.019C213.49 385.894 213.863 385.894 214.111 386.019L237.211 399.441L238.081 399.938L244.539 396.334V403.915H244.414Z" fill="#D5243A"/>
<path d="M244.414 403.915C244.414 404.288 244.29 404.661 244.042 404.785L198.214 431.257C198.09 431.257 197.966 431.381 197.842 431.381V422.433L237.087 399.441L237.956 399.938L244.414 396.334V403.915Z" fill="#B11118"/>
<path d="M244.166 396.955L244.042 397.08L198.214 423.552C198.09 423.552 198.09 423.676 197.966 423.676C197.717 423.8 197.469 423.676 197.345 423.552L196.6 423.179L168.159 405.779C168.035 405.655 167.911 405.655 167.911 405.531C167.662 405.158 167.787 404.537 168.159 404.288L168.78 403.915L212.745 378.562L213.117 378.313C213.366 378.189 213.738 378.189 213.987 378.313L214.235 378.437L243.918 395.588C244.539 395.961 244.539 396.583 244.166 396.955Z" fill="#FF4A67"/>
<path d="M214.235 378.437L210.013 390.99L209.516 392.357L207.28 399.068C207.156 399.317 207.032 399.441 206.784 399.565L197.469 401.057L196.103 401.305L167.911 405.655C167.662 405.282 167.787 404.661 168.159 404.412L168.78 404.039L206.038 398.198L208.398 391.363L212.745 378.562L213.117 378.313C213.366 378.189 213.738 378.189 213.987 378.313L214.235 378.437Z" fill="#D5243A"/>
<path d="M197.966 423.552C197.717 423.676 197.469 423.676 197.221 423.552L196.475 423.179L195.979 401.181V400.932C195.979 400.56 196.227 400.187 196.6 400.187C196.972 400.187 197.221 400.435 197.345 400.808V400.932L197.966 423.552Z" fill="#D5243A"/>
<path d="M244.166 396.955L209.64 392.233L209.019 392.108C208.646 392.108 208.398 391.736 208.398 391.363V391.238C208.522 390.99 208.771 390.741 209.143 390.866L210.013 390.99L243.918 395.588C244.539 395.961 244.539 396.583 244.166 396.955Z" fill="#D5243A"/>
<path d="M42.3503 504.335C57.2345 504.335 69.3005 500.885 69.3005 496.629C69.3005 492.374 57.2345 488.924 42.3503 488.924C27.4661 488.924 15.4001 492.374 15.4001 496.629C15.4001 500.885 27.4661 504.335 42.3503 504.335Z" fill="#A60000"/>
<path d="M69.0521 454.746L57.7504 492.652C57.2536 494.517 56.0117 496.132 54.2729 497.002C45.7035 501.228 37.1341 501.228 28.5647 497.002C26.826 496.132 25.584 494.517 25.0873 492.652L13.6614 455.119L41.4809 450.894L69.0521 454.746Z" fill="#51557C"/>
<path d="M41.4809 467.547C56.8452 467.547 69.3004 460.926 69.3004 452.758C69.3004 444.59 56.8452 437.968 41.4809 437.968C26.1166 437.968 13.6614 444.59 13.6614 452.758C13.6614 460.926 26.1166 467.547 41.4809 467.547Z" fill="#3A4059"/>
<path d="M60.7311 452.758C60.7311 457.481 52.0375 461.333 41.481 461.333C30.9244 461.333 22.2308 457.481 22.2308 452.758C22.2308 448.035 30.9244 444.182 41.481 444.182C52.0375 444.182 60.7311 448.035 60.7311 452.758Z" fill="#252B3D"/>
<path d="M30.3034 453.504H45.2068C51.7891 451.391 71.6602 438.838 68.1827 428.026C60.8553 405.407 72.1569 413.734 75.2618 405.158C82.7135 384.9 61.1036 389.126 75.386 371.229C89.6683 353.333 76.1312 342.644 65.3263 352.214C54.5213 361.784 56.5085 376.076 46.0761 383.782C35.6438 391.487 51.0439 401.927 44.9584 413.485C38.7487 425.043 33.4083 421.936 30.3034 435.11C28.4405 442.94 27.8196 449.775 30.3034 453.504Z" fill="#D5243A"/>
<path d="M39.618 453.504H40.7358C41.7293 440.703 47.5665 426.286 52.2859 422.557C58.4956 417.586 60.8553 408.265 58.744 396.086C56.8811 384.9 64.2085 373.342 64.3327 373.218C64.4569 372.969 64.4569 372.596 64.2085 372.472C63.9601 372.348 63.5875 372.348 63.4634 372.596C63.0908 373.093 55.7633 384.652 57.7504 396.21C59.7375 408.017 57.6262 416.965 51.6649 421.688C46.5729 425.54 40.6116 440.454 39.618 453.504Z" fill="#B11118"/>
<path d="M44.5858 453.504H31.6696C25.9566 451.639 8.56943 440.703 11.6743 431.382C18.1324 411.745 8.19685 418.953 5.46457 411.496C-0.993536 393.848 17.7598 397.577 5.34038 381.917C-7.07906 366.382 4.7194 357.061 14.034 365.388C23.3486 373.715 21.734 386.143 30.8002 392.73C39.8664 399.441 26.4534 408.514 31.7938 418.456C37.1341 428.399 41.8535 425.789 44.4616 437.223C46.0761 444.307 46.6971 450.272 44.5858 453.504Z" fill="#FF4A67"/>
<path d="M36.5131 453.504H35.5196C34.6502 442.443 29.6824 429.89 25.4598 426.535C19.9953 422.309 18.0082 414.106 19.8711 403.542C21.4856 393.848 15.1517 383.782 15.0275 383.657C14.9033 383.409 14.9033 383.16 15.1517 383.036C15.4001 382.912 15.6485 382.912 15.7727 383.16C16.0211 383.533 22.4792 393.6 20.7404 403.667C19.0017 413.858 20.8646 421.688 26.0808 425.789C30.4276 429.269 35.6438 442.194 36.5131 453.504Z" fill="#D5243A"/>
</g>
</g>
<defs>
<clipPath id="clip0_1140_5767">
<rect width="501" height="504" fill="white"/>
</clipPath>
<clipPath id="clip1_1140_5767">
<rect width="501" height="519" fill="white"/>
</clipPath>
</defs>
</svg>
