<svg width="91" height="91" viewBox="0 0 91 91" fill="none" xmlns="http://www.w3.org/2000/svg">
<g id="delivery" clip-path="url(#clip0_1004_5065)">
<g id="Vector">
<path d="M90.4765 45.5406C90.1245 47.5071 89.8194 49.4736 89.397 51.4401C88.9981 53.4066 88.5756 55.3731 87.9655 57.2685C87.4492 58.8796 86.487 60.2774 85.1024 61.3436C84.0698 62.1255 82.9199 62.5282 81.5822 62.4809C81.5118 61.8175 81.4648 61.2015 81.3475 60.5854C80.4557 55.918 76.2315 52.8853 71.5848 53.6198C66.1872 54.4727 62.9017 57.766 61.3059 63.0258C55.4623 63.0258 49.5249 63.0258 43.6345 63.0258C43.5171 62.0307 43.4702 61.0119 43.2355 60.0405C42.156 55.7048 38.0726 52.9327 33.6606 53.5961C29.0374 54.2832 25.7284 56.7946 24.0387 61.2251C23.6867 62.1492 23.2408 62.4335 22.2786 62.4098C18.7584 62.3387 15.2617 62.3861 11.7415 62.3861C10.0518 62.3861 8.78453 61.083 8.76106 59.4245C8.7376 57.7186 10.0049 56.3918 11.718 56.3445C12.9853 56.3208 14.2291 56.3682 15.4964 56.3208C17.2095 56.2734 18.4768 54.8992 18.4299 53.217C18.3829 51.5349 17.0922 50.3028 15.3086 50.3028C11.4129 50.2792 7.51726 50.3028 3.62158 50.3028C1.81455 50.3028 0.523807 49.0708 0.500339 47.4124C0.476871 45.5406 1.67374 44.2849 3.52771 44.2849C7.28258 44.2612 11.014 44.2849 14.7689 44.2849C15.1678 44.2849 15.5902 44.2612 15.9892 44.1902C17.4911 43.8822 18.4768 42.6028 18.4064 41.0627C18.336 39.5464 17.1861 38.3381 15.6606 38.2433C14.6046 38.1722 13.5485 38.2196 12.4925 38.1959C10.5212 38.1722 9.23042 36.9402 9.25389 35.1396C9.27736 33.3863 10.5681 32.178 12.469 32.1306C13.4077 32.1069 14.3464 32.1306 15.2852 32.1306C17.1626 32.0832 18.4533 30.8275 18.4299 29.0506C18.4064 27.3447 17.0687 26.089 15.2617 26.089C13.4077 26.089 11.5772 26.089 9.72325 26.089C7.72847 26.0653 6.4612 24.8807 6.4612 23.0563C6.48467 21.232 7.79888 20 9.77019 20C24.954 20 40.1612 20 55.345 20.0474C57.9499 20.0474 60.5549 20.1658 63.1598 20.3317C66.8443 20.5686 69.1676 22.7483 69.8013 26.4444C69.8247 26.5865 69.8717 26.7287 69.9655 26.9893C71.6552 26.9893 73.3449 26.9893 75.0346 26.9893C77.1702 26.9893 79.2354 27.2973 81.1363 28.3635C82.7086 29.2401 83.9759 30.4484 84.9381 31.9648C87.1441 35.4239 89.1154 39.0015 90.5 42.8871C90.4765 43.7637 90.4765 44.6403 90.4765 45.5406ZM68.0177 43.6452C69.0972 43.6452 70.0359 43.6452 70.9981 43.6452C74.9173 43.6452 78.8364 43.6689 82.7556 43.6452C84.6095 43.6215 85.5248 42.1526 84.633 40.4941C83.5535 38.4802 82.4036 36.4664 81.2302 34.4999C80.3618 33.0309 79.0476 32.0122 77.4049 31.562C74.8234 30.8275 72.195 31.3014 69.5666 31.1355C69.0503 35.3528 68.5575 39.4042 68.0177 43.6452ZM40.7479 39.0489C42.5549 37.9116 43.4702 36.2057 43.3529 34.263C43.259 32.5571 42.4376 31.4909 40.7714 31.3251C39.0582 31.1355 37.3216 31.1829 35.6084 31.2066C34.8105 31.2303 34.3646 31.7989 34.2473 32.6045C33.8014 35.8504 33.3086 39.0726 32.9096 42.3184C32.8627 42.6975 33.1443 43.3135 33.4494 43.4557C33.7779 43.6215 34.4116 43.4794 34.6932 43.2425C35.0217 42.9581 35.1625 42.3895 35.2564 41.9157C35.4441 41.0864 35.5145 40.2572 35.6554 39.4042C36.3594 39.4042 36.9461 39.4279 37.5093 39.4042C38.0491 39.3569 38.2838 39.5701 38.4481 40.0676C38.7062 40.9206 39.0113 41.7498 39.2929 42.5791C39.6214 43.5031 40.1143 43.8111 40.8418 43.5505C41.5693 43.3135 41.8978 42.5791 41.6397 41.7498C41.3815 40.8495 41.0765 39.9729 40.7479 39.0489ZM46.7792 38.2433C47.976 38.2433 49.126 38.267 50.2994 38.2433C51.0738 38.2196 51.6605 37.651 51.6136 36.9876C51.5666 36.1584 50.9565 36.0399 50.2994 36.0399C49.2668 36.0399 48.2107 36.0399 47.0843 36.0399C47.2251 35.0922 47.3424 34.263 47.4832 33.3626C49.079 33.3626 50.6045 33.3863 52.1064 33.3389C52.8339 33.3152 53.3737 32.7229 53.3267 32.0832C53.2563 31.3251 52.7166 31.1592 52.0595 31.1592C50.4167 31.1592 48.774 31.1592 47.1547 31.1592C45.8405 31.1592 45.3711 31.5857 45.1834 32.8888C45.0191 34.0971 44.8548 35.2817 44.6905 36.4901C44.4324 38.3855 44.1742 40.2809 43.9161 42.1763C43.8222 42.8634 44.01 43.5268 44.7844 43.5505C46.8026 43.6215 48.8209 43.5741 50.8391 43.5505C51.0269 43.5505 51.3085 43.4557 51.3789 43.3135C51.5901 42.9344 51.8717 42.4606 51.8013 42.0815C51.7544 41.7972 51.1912 41.4418 50.8391 41.4418C49.3606 41.3707 47.8822 41.4181 46.3333 41.4181C46.4741 40.3046 46.6149 39.3332 46.7792 38.2433ZM56.3776 38.2433C57.5744 38.2433 58.6774 38.267 59.7804 38.2433C60.6253 38.2196 61.2355 37.6984 61.1885 36.9876C61.1416 36.0873 60.4845 36.0162 59.8039 36.0162C58.7948 36.0162 57.7857 36.0162 56.6827 36.0162C56.7765 35.3054 56.8704 34.7131 56.8939 34.1445C56.9173 33.5522 57.152 33.3389 57.7622 33.3626C59.0764 33.3863 60.3906 33.3863 61.7048 33.3389C62.4323 33.3152 62.9486 32.6992 62.8547 32.0595C62.7609 31.3488 62.268 31.1829 61.6579 31.1829C59.9212 31.1829 58.2081 31.1592 56.4714 31.1829C55.4389 31.1829 54.9226 31.6805 54.7818 32.6992C54.3359 35.8504 53.9134 39.0015 53.4676 42.1763C53.3267 43.124 53.7022 43.5978 54.6409 43.5978C56.448 43.6215 58.2785 43.6215 60.0855 43.5978C60.8834 43.5978 61.4701 43.0766 61.4467 42.4132C61.4232 41.5129 60.7896 41.4418 60.0855 41.4418C58.7244 41.4418 57.3398 41.4418 55.9082 41.4418C56.0725 40.3283 56.2133 39.3095 56.3776 38.2433ZM26.9018 38.5987C27.9109 38.5987 28.8496 38.6224 29.7649 38.5987C30.6097 38.575 31.2434 37.959 31.2434 37.2482C31.2434 36.5848 30.774 36.2531 29.7884 36.2294C28.967 36.2294 28.1221 36.2294 27.2069 36.2294C27.3477 35.258 27.465 34.4288 27.6058 33.5048C28.967 33.5048 30.2812 33.5285 31.5954 33.5048C32.3933 33.4811 33.0035 32.8888 32.9565 32.178C32.8861 31.3488 32.2994 31.1592 31.5719 31.1829C30.1404 31.2066 28.7088 31.1829 27.2773 31.1829C25.9866 31.1829 25.5407 31.562 25.3529 32.8414C25.1652 34.0734 25.0009 35.2817 24.8366 36.5138C24.5785 38.4802 24.2734 40.423 24.0387 42.3895C23.9448 43.3135 24.6254 43.9058 25.3764 43.5031C25.7988 43.2898 26.1978 42.7449 26.3151 42.2711C26.5967 41.1101 26.7141 39.9018 26.9018 38.5987Z" fill="#D9072D"/>
<path d="M32.4168 70.3705C28.6854 70.3468 26.1039 67.172 26.8079 63.4522C27.512 59.8036 30.7271 57.0316 34.2707 57.0316C37.9318 57.0316 40.4663 59.9221 40.0204 63.5944C39.5745 67.3378 36.1247 70.3942 32.4168 70.3705Z" fill="#D9072D"/>
<path d="M78.0385 62.7652C78.062 67.172 73.9081 70.8917 69.5666 70.3468C66.6096 69.9914 64.4975 67.3378 64.6852 64.3289C64.9434 60.3485 68.4401 57.0316 72.3827 57.0552C75.6213 57.0552 78.015 59.4719 78.0385 62.7652Z" fill="#D9072D"/>
<path d="M7.47033 35.1633C7.49379 36.8218 6.13265 38.2196 4.48989 38.2433C2.84714 38.2433 1.46253 36.8691 1.48599 35.2107C1.48599 33.5522 2.8002 32.2254 4.41949 32.2017C6.10918 32.178 7.44686 33.4811 7.47033 35.1633Z" fill="#D9072D"/>
<path d="M35.9604 37.2008C36.1247 36.0162 36.2186 34.9263 36.4063 33.8602C36.4298 33.6706 36.7584 33.41 36.9696 33.3863C37.6267 33.3152 38.3072 33.3626 38.9878 33.3626C40.3724 33.3863 40.9357 33.8128 40.9591 34.8079C41.0061 36.0873 40.1847 37.0824 38.9878 37.1771C38.3307 37.2245 37.6501 37.2008 36.9696 37.2008C36.688 37.2008 36.4063 37.2008 35.9604 37.2008Z" fill="#D9072D"/>
</g>
</g>
<defs>
<clipPath id="clip0_1004_5065">
<rect width="90" height="90" fill="white" transform="translate(0.5 0.5)"/>
</clipPath>
</defs>
</svg>
