<svg width="90" height="91" viewBox="0 0 90 91" fill="none" xmlns="http://www.w3.org/2000/svg">
<g id="original">
<g id="Vector">
<path d="M82.5 23.9766C82.5 24.5234 82.5 25.0508 82.5 25.5781C82.1673 26.8672 81.3257 27.8438 80.4059 28.7617C63.0267 46.125 45.667 63.4883 28.3074 80.8516C27.368 81.7891 26.3895 82.6484 25.0782 83C24.5498 83 24.0018 83 23.4734 83C22.6905 82.5312 21.7707 82.1992 21.1444 81.5938C17.0344 77.5703 12.9636 73.4883 8.91241 69.3672C8.36442 68.8008 7.89471 68.0195 7.67943 67.2578C7.15101 65.4609 7.836 63.9961 9.12769 62.707C26.6635 45.1875 44.1992 27.6484 61.735 10.0898C62.6548 9.15234 63.6138 8.33203 64.9251 8C65.4535 8 66.0015 8 66.5299 8C67.9195 8.41016 68.8784 9.36719 69.857 10.3633C73.2624 13.8008 76.6873 17.2383 80.1319 20.6367C81.13 21.6133 82.089 22.5898 82.5 23.9766ZM51.6167 38C51.6558 37.9609 51.6754 37.9219 51.7145 37.8828C52.3995 38 53.1041 38.1172 53.7891 38.2539C55.2569 38.5273 56.7052 38.8008 58.173 39.0547C58.7797 39.1523 59.3081 39.0352 59.6017 38.4492C59.8953 37.8828 59.6996 37.3555 59.269 36.9258C59.1907 36.8477 59.132 36.7891 59.0537 36.7109C57.214 34.8945 55.3743 33.0977 53.5151 31.2812C53.4368 31.2031 53.3389 31.1055 53.2411 31.0273C52.7127 30.5977 52.0864 30.6172 51.6754 31.0664C51.284 31.4961 51.284 32.1211 51.7341 32.5898C52.1451 33.0391 52.5952 33.4492 53.0258 33.8789C53.7891 34.6602 54.5524 35.4219 55.3743 36.2812C55.1199 36.2617 54.9633 36.2422 54.8068 36.2227C52.7518 35.8516 50.6773 35.4805 48.6223 35.0898C48.0352 34.9727 47.5263 35.0508 47.2327 35.5977C46.9 36.1836 47.1545 36.6523 47.6046 37.1016C49.3856 38.8789 51.1665 40.6562 52.9279 42.4336C53.1432 42.6484 53.3585 42.9023 53.6129 43.0977C54.1414 43.5469 54.7481 43.5469 55.1786 43.0781C55.5896 42.6484 55.6092 42.043 55.1591 41.5547C54.6698 41.0078 54.1414 40.5195 53.6129 39.9922C52.9475 39.3281 52.2821 38.6641 51.6167 38ZM30.0688 65.8906C30.0688 62.8438 27.642 60.4219 24.5889 60.4219C21.5554 60.4219 19.0894 62.8828 19.0894 65.9102C19.0894 68.918 21.5945 71.3984 24.5889 71.3984C27.6224 71.3984 30.0688 68.9375 30.0688 65.8906ZM45.3148 46.5547C46.215 48.0391 46.0193 49.3477 44.8451 50.2461C43.7295 51.0859 42.5161 51.1836 41.2635 50.5586C40.0501 49.9531 39.4238 48.6836 39.5608 47.2578C39.6783 45.9883 40.6177 44.8945 41.9485 44.4844C42.8292 44.2109 43.2206 43.7031 43.0445 43.0586C42.8488 42.375 42.2225 42.1211 41.3027 42.3945C38.2496 43.2734 36.586 46.5547 37.6624 49.543C38.4061 51.6133 40.3828 53.0586 42.5552 53.1367C44.8451 53.2148 46.9 51.9844 47.7416 50.0117C48.5244 48.2148 47.996 45.9688 46.4303 44.3672C45.7845 43.7227 45.2561 43.7031 44.5906 44.3281C44.0426 44.8555 43.5142 45.3828 42.9858 45.9297C42.4182 46.5156 42.3987 47.1406 42.8684 47.6094C43.3577 48.0781 43.9644 48.0391 44.5515 47.4531C44.8255 47.1992 45.0408 46.9062 45.3148 46.5547ZM33.8069 58.332C33.8656 58.1172 33.9048 58 33.9439 57.8828C34.4723 56.1836 33.9831 54.6797 32.6522 53.8203C31.2822 52.9414 29.5796 53.1758 28.3074 54.3867C27.7986 54.875 27.2897 55.3828 26.8004 55.8906C26.1937 56.5156 26.1937 57.043 26.82 57.668C28.7967 59.6602 30.7734 61.6523 32.7697 63.625C33.3372 64.1914 33.9635 64.2305 34.4528 63.7617C34.9225 63.293 34.8833 62.6484 34.3353 62.082C33.8461 61.5742 33.3372 61.1055 32.8284 60.6367C34.1005 60.5586 35.2943 60.6367 36.4686 60.6953C37.6037 60.7539 38.1126 60.4219 38.1322 59.6406C38.1517 58.8984 37.6624 58.5469 36.586 58.4883C35.6858 58.4688 34.8051 58.4102 33.8069 58.332ZM61.3631 36.1445C62.4395 36.1445 63.0658 35.3242 62.6157 34.6211C61.8524 33.4297 62.3025 32.6875 63.242 31.9648C63.379 31.8672 63.4964 31.75 63.5942 31.5938C64.2401 30.6758 64.9838 30.3047 65.9819 31.0859C66.0406 31.125 66.1189 31.1445 66.1776 31.1641C66.7843 31.3594 67.254 31.1445 67.5085 30.5977C67.7629 30.0508 67.6063 29.543 67.0779 29.2109C66.7648 29.0156 66.432 28.8984 66.0993 28.7422C63.6334 27.6289 61.1674 26.5156 58.721 25.4023C58.1339 25.1289 57.5859 25.1289 57.0966 25.6172C56.6465 26.0664 56.6269 26.6133 56.8813 27.1602C58.1143 29.8945 59.3081 32.6289 60.5803 35.3438C60.7564 35.7344 61.187 35.9883 61.3631 36.1445ZM69.4852 25.7734C67.6259 23.918 65.9036 22.1797 64.1422 20.4414C63.5747 19.875 62.9288 19.8359 62.4591 20.2852C61.9698 20.7539 61.9894 21.3984 62.557 21.9648C64.5532 23.9766 66.5495 25.9688 68.5653 27.9609C69.1524 28.5469 69.6809 28.5469 70.2876 27.9609C70.9726 27.3164 71.6575 26.6328 72.3034 25.9492C72.8122 25.4219 72.8122 24.7578 72.3425 24.3281C71.8728 23.8789 71.2661 23.8984 70.7181 24.4453C70.3267 24.8164 69.9353 25.2656 69.4852 25.7734ZM52.7518 45.207C52.4778 44.7969 52.3017 44.4648 52.0277 44.1914C50.5598 42.6875 49.0724 41.2227 47.585 39.7383C47.0566 39.2109 46.5282 38.6445 45.9606 38.1562C45.4909 37.7461 44.9625 37.7852 44.5123 38.2148C44.0818 38.6641 44.0818 39.1719 44.4341 39.6797C44.5123 39.7969 44.6298 39.8945 44.7276 39.9922C46.6456 41.9062 48.544 43.8203 50.462 45.7344C50.599 45.8711 50.736 46.0664 50.9121 46.1055C51.2644 46.1641 51.7145 46.2617 52.0081 46.1055C52.3212 45.9688 52.4974 45.5586 52.7518 45.207ZM41.1852 56.7891C40.9113 56.3789 40.7351 56.0273 40.4807 55.7734C39.0324 54.2891 37.5646 52.8438 36.0967 51.3789C35.5879 50.8711 35.0791 50.3242 34.5311 49.8359C34.0222 49.3477 33.4155 49.3672 32.9654 49.7969C32.5348 50.2266 32.5348 50.8516 32.9654 51.3789C33.0436 51.4766 33.1415 51.5547 33.2198 51.6328C35.0986 53.5078 36.9775 55.3828 38.8563 57.2578C39.0129 57.4141 39.1694 57.6289 39.3456 57.668C39.6978 57.7461 40.148 57.8242 40.4415 57.6875C40.7547 57.5508 40.9308 57.1211 41.1852 56.7891Z" fill="#D9072D"/>
<path d="M47.3306 8C48.7593 8.19531 50.188 8.35156 51.5971 8.60547C53.0258 8.85938 54.4545 9.23047 55.9811 9.58203C55.7658 9.83594 55.6679 9.97266 55.5505 10.1094C52.9476 12.7266 50.3446 15.3242 47.722 17.9219C47.4872 18.1367 47.0958 18.332 46.8022 18.3125C35.7445 17.5898 25.2152 23.7422 20.4399 33.7422C18.3849 38.0391 17.5238 42.5703 17.8173 47.3164C17.8369 47.5703 17.739 47.9023 17.5629 48.0781C14.8425 50.832 12.083 53.5859 9.34301 56.3203C9.30386 56.3594 9.26472 56.3594 9.06901 56.457C8.69716 54.7383 8.24702 53.0781 7.9926 51.3789C6.58347 41.9062 8.34488 33.0391 13.6291 25.0312C19.5787 16.0078 27.9356 10.5 38.6019 8.56641C39.9327 8.33203 41.3027 8.19531 42.6531 8C44.2188 8 45.7649 8 47.3306 8Z" fill="#D9072D"/>
<path d="M82.5 43.3125C82.5 44.8359 82.5 46.3398 82.5 47.8438C82.3239 49.1914 82.1673 50.5391 81.9324 51.8867C79.2512 67.4727 67.0779 79.6797 51.4601 82.4336C50.0902 82.668 48.7202 82.8242 47.3502 83C45.8432 83 44.3167 83 42.8097 83C41.3419 82.8047 39.8544 82.668 38.4062 82.3945C36.9579 82.1406 35.5488 81.75 33.9831 81.3984C36.9188 78.4688 39.6979 75.6562 42.5161 72.8828C42.6727 72.7266 43.0054 72.668 43.2403 72.6875C46.4304 72.8828 49.5813 72.5508 52.654 71.6523C64.9055 68.0781 73.0471 56.4375 72.2447 43.7031C72.2251 43.3906 72.4209 43 72.6361 42.7852C75.2195 40.168 77.8421 37.5703 80.445 34.9531C80.5624 34.8359 80.719 34.7188 80.9539 34.5234C81.3062 36.0664 81.678 37.4727 81.9324 38.918C82.1477 40.3633 82.3043 41.8281 82.5 43.3125Z" fill="#D9072D"/>
<path d="M22.3578 42.9219C22.9254 33.2734 31.6541 23.7031 42.4574 22.8242C35.7836 29.5039 29.012 36.2812 22.3578 42.9219Z" fill="#D9072D"/>
<path d="M47.2523 68.2539C54.1218 61.3789 60.8739 54.6211 67.6063 47.9023C68.0761 50.5391 65.1991 57.2188 61.9111 60.8516C57.9969 65.1289 53.1237 67.5703 47.2523 68.2539Z" fill="#D9072D"/>
<path d="M24.6281 62.6289C26.4678 62.6484 27.8965 64.1133 27.8769 65.9687C27.8573 67.7656 26.3895 69.2109 24.5889 69.2109C22.7884 69.2109 21.2814 67.6875 21.301 65.8906C21.301 64.0742 22.7884 62.6094 24.6281 62.6289Z" fill="#D9072D"/>
<path d="M30.7147 58.4492C30.1667 57.8828 29.6579 57.3359 29.1099 56.75C29.6774 56.2227 30.0884 55.3633 31.0866 55.5781C31.4193 55.6562 31.8498 56.0273 31.9281 56.3398C32.1825 57.3555 31.341 57.8242 30.7147 58.4492Z" fill="#D9072D"/>
<path d="M59.817 28.332C60.8347 28.8008 61.6371 29.1523 62.4591 29.5234C61.9699 30.0508 61.5197 30.5195 61.05 31.0469C60.639 30.1484 60.2867 29.3281 59.817 28.332Z" fill="#D9072D"/>
</g>
</g>
</svg>
