<svg width="91" height="91" viewBox="0 0 91 91" fill="none" xmlns="http://www.w3.org/2000/svg">
<g id="security">
<path id="Vector" d="M46.1032 83C45.6997 83 45.3367 83 44.9332 83C43.8843 82.6314 42.8354 82.3038 41.8268 81.8943C34.8473 79.1916 28.7555 75.0966 23.6318 69.5274C20.1623 65.801 17.3383 61.665 15.7245 56.751C13.9897 51.4685 13.1022 46.0221 12.7391 40.4529C12.255 33.2866 12.5374 26.1204 13.3039 18.9541C13.4653 17.398 14.0704 16.7428 15.5631 16.2924C25.1649 13.5897 34.7666 10.887 44.3281 8.18428C45.1349 7.93857 45.8611 7.93857 46.668 8.18428C56.2697 10.887 65.8312 13.5897 75.4329 16.2924C76.966 16.7428 77.5308 17.398 77.6921 18.9951C78.2973 24.6462 78.62 30.3382 78.4587 36.0303C78.3376 41.4767 77.8132 46.8821 76.5222 52.2056C75.5943 56.0549 74.384 59.8223 72.2458 63.1802C66.9204 71.4111 59.7393 77.3489 50.8637 81.1982C49.2903 81.8943 47.6766 82.4267 46.1032 83ZM42.674 46.3088C42.3916 45.9402 42.2705 45.6945 42.0688 45.5307C39.5675 42.9918 37.0662 40.412 34.5649 37.914C33.3143 36.6446 31.9829 36.6446 30.692 37.914C29.9658 38.6511 29.2396 39.3473 28.5538 40.0844C27.4241 41.2719 27.4241 42.6642 28.5941 43.8518C32.6688 47.9877 36.7435 52.1646 40.8585 56.3006C41.9881 57.4472 43.3598 57.4472 44.4894 56.3006C51.1865 49.5029 57.8835 42.7461 64.5402 35.9484C65.6294 34.8428 65.6294 33.4504 64.5402 32.3038C64.0964 31.8124 63.5719 31.362 63.1281 30.8296C61.1513 28.5774 59.8603 28.6183 57.7221 30.8296C52.9616 35.7846 48.1203 40.6167 43.2791 45.5307C43.1178 45.6945 42.9967 45.8993 42.674 46.3088Z" fill="#D9072D"/>
</g>
</svg>
