<svg width="90" height="91" viewBox="0 0 90 91" fill="none" xmlns="http://www.w3.org/2000/svg">
<g id="shop">
<g id="Vector">
<path d="M7.5 77.2965C7.5 66.5527 7.5 55.8089 7.5 45.0651C8.06759 43.8322 9.02662 43.4408 10.3771 43.4408C26.1913 43.48 42.0251 43.4604 57.8392 43.4604C59.7377 43.4604 60.5402 44.2628 60.5402 46.1806C60.5402 52.4038 60.5402 58.627 60.5402 64.8501C60.5402 68.7249 60.5598 72.6193 60.5206 76.4941C60.4815 80.095 57.624 82.9326 54.0227 82.9913C52.8092 83.0109 51.5762 82.9913 50.3627 82.9913C38.3455 82.9913 26.3479 82.9913 14.3306 82.9913C11.2578 82.9913 8.73304 81.23 7.83272 78.4707C7.69572 78.0793 7.61743 77.6879 7.5 77.2965ZM47.0551 55.985C47.0551 55.5154 47.0551 55.0653 47.0551 54.5956C47.0355 53.2257 46.1352 52.2472 44.8826 52.2472C43.63 52.2472 42.6905 53.2257 42.6709 54.576C42.6709 55.3001 42.6709 56.0437 42.6709 56.7678C42.6122 61.2102 39.2654 64.8697 34.7638 65.3981C30.5558 65.8873 26.4261 63.0106 25.3888 58.7835C25.1931 57.942 25.1148 57.0418 25.1148 56.1807C25.0757 53.304 24.5081 52.2472 22.8836 52.2472C21.2787 52.2668 20.7111 53.304 20.7111 56.2199C20.7111 56.4351 20.7111 56.6504 20.7111 56.8852C20.8285 65.5546 29.3228 71.7778 37.6409 69.2925C42.8471 67.7269 47.2899 62.717 47.0551 55.985Z" fill="#D9072D"/>
<path d="M57.3108 8C58.2503 8.23484 59.2093 8.41096 60.1096 8.72408C65.394 10.5245 68.9757 15.4756 69.0149 21.0726C69.0344 22.6382 69.0149 24.2038 69.0149 25.8672C69.3084 25.8672 69.5629 25.8672 69.8173 25.8672C73.2033 25.8672 76.6088 25.8672 79.9948 25.8672C81.6192 25.8672 82.5 26.7283 82.5 28.333C82.5 44.3019 82.5 60.2512 82.5 76.2202C82.5 80.1145 79.6425 82.9717 75.7477 82.9913C71.618 83.0109 67.4883 82.9913 63.3781 82.9913C63.202 82.9913 63.0063 82.9913 62.6931 82.9913C62.8693 82.7369 62.9671 82.5803 63.065 82.4238C64.2784 80.5842 64.9243 78.5685 64.9243 76.3571C64.9243 66.1613 64.9439 55.9459 64.9243 45.7501C64.9243 41.9144 62.0472 39.0572 58.1915 39.0572C48.8361 39.0376 39.5003 39.0572 30.1448 39.0572C29.8513 39.0572 29.5577 39.0572 29.2249 39.0572C29.2054 38.8028 29.1858 38.5875 29.1858 38.3723C29.1858 35.0258 29.1858 31.6794 29.1858 28.333C29.1858 26.7283 30.0665 25.8672 31.691 25.8672C35.0574 25.8672 38.4238 25.8672 41.7902 25.8672C42.0446 25.8672 42.3186 25.8672 42.6514 25.8672C42.6514 24.2625 42.6318 22.6969 42.6514 21.1509C42.6905 17.5892 43.9431 14.5167 46.4092 11.9727C48.4838 9.83956 51.0086 8.56752 53.964 8.13699C54.101 8.11742 54.238 8.03914 54.3554 8C55.3536 8 56.3322 8 57.3108 8ZM64.6307 25.8476C64.6307 24.2038 64.6503 22.6382 64.6307 21.0922C64.5916 16.9825 61.6558 13.4404 57.6044 12.5793C53.69 11.7574 49.5799 13.7535 47.9358 17.4522C47.4269 18.5872 47.1921 19.8788 47.0746 21.1117C46.9376 22.6773 47.0355 24.2625 47.0355 25.8476C52.9462 25.8476 58.7591 25.8476 64.6307 25.8476Z" fill="#D9072D"/>
</g>
</g>
</svg>
